<?xml version="1.0" encoding="utf-8"?>
<!-- Generator: Adobe Illustrator 25.0.0, SVG Export Plug-In . SVG Version: 6.00 Build 0)  -->
<svg version="1.1" id="Layer_1" xmlns="http://www.w3.org/2000/svg" xmlns:xlink="http://www.w3.org/1999/xlink" x="0px" y="0px"
	 viewBox="0 0 512 512" style="enable-background:new 0 0 512 512;" xml:space="preserve">
<style type="text/css">
	.st0{fill:url(#SVGID_1_);}
	.st1{fill:url(#SVGID_2_);}
	.st2{fill:url(#SVGID_3_);}
	.st3{fill:url(#SVGID_4_);}
	.st4{fill:url(#SVGID_5_);}
	.st5{fill:url(#SVGID_6_);}
	.st6{fill:url(#SVGID_7_);}
	.st7{fill:url(#SVGID_8_);}
	.st8{fill:url(#SVGID_9_);}
	.st9{fill:url(#SVGID_10_);}
	.st10{fill:url(#SVGID_11_);}
	.st11{fill:url(#SVGID_12_);}
	.st12{fill:url(#SVGID_13_);}
	.st13{fill:url(#SVGID_14_);}
	.st14{fill:url(#SVGID_15_);}
	.st15{fill:url(#SVGID_16_);}
	.st16{fill:url(#SVGID_17_);}
	.st17{fill:url(#SVGID_18_);}
	.st18{fill:url(#SVGID_19_);}
	.st19{fill:url(#SVGID_20_);}
	.st20{fill:url(#SVGID_21_);}
	.st21{fill:url(#SVGID_22_);}
	.st22{fill:url(#SVGID_23_);}
	.st23{fill:url(#SVGID_24_);}
	.st24{fill:url(#SVGID_25_);}
	.st25{fill:url(#SVGID_26_);}
	.st26{fill:url(#SVGID_27_);}
	.st27{fill:url(#SVGID_28_);}
	.st28{fill:url(#SVGID_29_);}
	.st29{fill:url(#SVGID_30_);}
	.st30{fill:url(#SVGID_31_);}
	.st31{fill:url(#SVGID_32_);}
	.st32{fill:url(#SVGID_33_);}
</style>
<g>
	<linearGradient id="SVGID_1_" gradientUnits="userSpaceOnUse" x1="189.7274" y1="53.793" x2="199.2942" y2="416.8299">
		<stop  offset="0" style="stop-color:#0554F1"/>
		<stop  offset="1" style="stop-color:#298AE2"/>
	</linearGradient>
	<path class="st0" d="M201.99,251.08l42.55,50.39c6.49,7.68,18.11,8.71,25.81,2.24c28.91-24.27,91.07-92.84,101.76-239.86
		c0.76-10.41-6.43-19.74-16.68-21.7c-48.98-9.37-192.2-26.88-335.73,50.16C12.52,96.17,8.31,103.89,9.09,112
		c4.97,51.36,36.06,240.14,227.95,362.77c7.88,5.04,18.01,4.89,25.68-0.46l62.1-43.36c8.42-5.87,8.02-18.48-0.76-23.78
		C276.97,378.74,157.21,295.29,122.8,164.4c-1.48-5.62,1.42-11.47,6.75-13.78c19.11-8.28,65.77-25.22,115.16-18.64
		c5.98,0.8,9.86,6.74,8.16,12.53c-5.13,17.55-18.62,53.13-48.71,79.53C196.21,231.01,195.16,243,201.99,251.08z"/>
	<linearGradient id="SVGID_2_" gradientUnits="userSpaceOnUse" x1="420.2965" y1="63.4969" x2="372.3622" y2="383.3445">
		<stop  offset="0" style="stop-color:#CE6200"/>
		<stop  offset="1" style="stop-color:#FF8A00"/>
	</linearGradient>
	<path class="st1" d="M402.86,64.82c-1.4,40.17-13.77,162.42-108.75,261.11c-5.21,5.41-4.66,14.13,1.14,18.9
		c13.74,11.3,38.3,29.93,59.84,38.1c7.56,2.87,16.09,1.04,21.94-4.54c25.44-24.26,96.91-105.08,125.68-269.35
		c1.32-7.55-2.01-15.17-8.45-19.33c-14.05-9.07-41.47-24.64-77.62-34.86C409.87,52.92,403.11,57.79,402.86,64.82z"/>
</g>
</svg>
