<svg width="173" height="37" viewBox="0 0 173 37" fill="none" xmlns="http://www.w3.org/2000/svg">
<path d="M15.625 17.6125L19.0703 21.6935C19.3246 21.9929 19.6866 22.1799 20.0779 22.2139C20.4692 22.248 20.8582 22.1263 21.1603 21.8753C23.5025 19.909 28.5357 14.3625 29.4014 2.45102C29.4304 2.04372 29.309 1.63993 29.0601 1.31624C28.8111 0.992549 28.4521 0.771479 28.051 0.694966C24.085 -0.0631072 12.4876 -1.48156 0.865436 4.75616C0.581048 4.90752 0.347806 5.13965 0.195083 5.42331C0.0423606 5.70697 -0.023014 6.02948 0.00719238 6.35022C0.414054 10.5091 2.92695 25.7955 18.4693 35.7246C18.7808 35.9248 19.1447 36.0282 19.515 36.0216C19.8852 36.015 20.2452 35.8987 20.5494 35.6875L25.5776 32.1766C25.7347 32.0672 25.8619 31.9203 25.9477 31.7493C26.0336 31.5782 26.0753 31.3884 26.0692 31.1971C26.063 31.0058 26.0092 30.8191 25.9126 30.6539C25.8159 30.4887 25.6795 30.3503 25.5158 30.2512C21.7032 27.9485 12.0053 21.1926 9.21908 10.5883C9.16252 10.368 9.18652 10.1349 9.28675 9.93077C9.38698 9.72668 9.55684 9.56513 9.76569 9.47526C11.3127 8.80499 15.0908 7.43229 19.0901 7.9653C19.2041 7.98031 19.3136 8.01981 19.4109 8.08108C19.5082 8.14235 19.5912 8.22394 19.654 8.32026C19.7168 8.41658 19.7581 8.52535 19.775 8.63911C19.7918 8.75288 19.7839 8.86895 19.7517 8.97936C19.3362 10.4003 18.2442 13.2817 15.8068 15.4199C15.4945 15.6882 15.3003 16.0686 15.2663 16.4789C15.2323 16.8892 15.3611 17.2964 15.625 17.6125Z" fill="url(#paint0_linear_203_1463)"/>
<path d="M31.8913 2.52983C31.7788 5.78224 30.7783 15.6817 23.0863 23.6767C22.9867 23.7808 22.9097 23.9043 22.8601 24.0395C22.8105 24.1747 22.7894 24.3187 22.7981 24.4625C22.8068 24.6063 22.8452 24.7467 22.9107 24.8749C22.9763 25.0031 23.0676 25.1165 23.179 25.2077C24.292 26.1228 26.2793 27.6316 28.0243 28.292C28.3251 28.4039 28.6515 28.4285 28.9658 28.3628C29.28 28.2972 29.5692 28.144 29.8001 27.921C31.8604 25.9559 37.648 19.4115 39.9766 6.1112C40.0293 5.8119 39.9925 5.50372 39.8708 5.22523C39.7492 4.94674 39.5481 4.71033 39.2927 4.54558C37.3461 3.30409 35.229 2.35299 33.008 1.72229C32.8804 1.68562 32.7461 1.67845 32.6154 1.70132C32.4846 1.72419 32.3607 1.77651 32.2531 1.8543C32.1456 1.9321 32.0571 2.03334 31.9944 2.15038C31.9317 2.26741 31.8965 2.39716 31.8913 2.52983Z" fill="url(#paint1_linear_203_1463)"/>
<path d="M64.9106 21.7149H59.5642V27.2783H56V8.37484C58.9702 8.37484 61.9404 8.34644 64.9106 8.34644C74.1467 8.34644 74.1725 21.7149 64.9106 21.7149ZM59.5642 18.4477H64.9106C69.4744 18.4477 69.4486 11.7505 64.9106 11.7505H59.5642V18.4477Z" fill="url(#paint2_linear_203_1463)"/>
<path d="M76.4945 13.9652L76.7373 15.5149C77.7704 13.8671 79.1419 13.6243 80.4927 13.6243C81.8435 13.6243 83.1917 14.1641 83.92 14.895L82.4349 17.7567C82.1157 17.4626 81.7414 17.2346 81.3335 17.0861C80.9256 16.9376 80.4923 16.8715 80.0587 16.8915C78.3309 16.8915 76.7373 17.811 76.7373 20.2672V27.2898H73.4339V13.9652H76.4945Z" fill="url(#paint3_linear_203_1463)"/>
<path d="M98.3936 20.6365C98.3936 24.4693 95.7747 27.5764 91.4537 27.5764C87.1327 27.5764 84.5396 24.4693 84.5396 20.6365C84.5396 16.8036 87.1843 13.6965 91.4253 13.6965C95.6662 13.6965 98.3936 16.8269 98.3936 20.6365ZM87.8352 20.6365C87.8352 22.6614 89.0517 24.552 91.4511 24.552C93.8505 24.552 95.067 22.6614 95.067 20.6365C95.067 18.6116 93.662 16.6926 91.4511 16.6926C89.0775 16.6926 87.8352 18.6374 87.8352 20.6365Z" fill="url(#paint4_linear_203_1463)"/>
<path d="M114.191 13.9346L108.509 27.3263H104.945L99.2625 13.9346H102.855L104.692 18.3253L106.742 23.9429L108.765 18.3976L110.601 13.9423L114.191 13.9346Z" fill="url(#paint5_linear_203_1463)"/>
<path d="M119.374 10.2145C119.374 12.7793 115.487 12.7793 115.487 10.2145C115.487 7.64984 119.374 7.64984 119.374 10.2145ZM115.791 13.9131V27.2816H119.084V13.9131H115.791Z" fill="url(#paint6_linear_203_1463)"/>
<path d="M130.742 17.4979C129.796 16.6069 128.717 16.3098 127.446 16.3098C125.881 16.3098 125.016 16.7954 125.016 17.6322C125.016 18.469 125.791 18.983 127.5 19.0915C130.011 19.2516 133.198 19.8198 133.198 23.3583C133.198 25.706 131.282 27.7309 127.475 27.7309C125.367 27.7309 123.262 27.3797 121.317 25.3548L122.937 23.007C123.882 24.0582 126.036 24.8434 127.529 24.8692C128.769 24.8976 129.931 24.2493 129.931 23.2756C129.931 22.3587 129.174 21.9842 127.283 21.8706C124.773 21.682 121.777 20.7651 121.777 17.7381C121.777 14.6594 124.962 13.5798 127.392 13.5798C129.471 13.5798 131.039 13.9853 132.578 15.3335L130.742 17.4979Z" fill="url(#paint7_linear_203_1463)"/>
<path d="M148.538 20.6365C148.538 24.4693 145.919 27.5764 141.598 27.5764C137.277 27.5764 134.686 24.4771 134.686 20.6365C134.686 16.7959 137.331 13.6965 141.572 13.6965C145.813 13.6965 148.538 16.8269 148.538 20.6365ZM137.979 20.6365C137.979 22.6614 139.196 24.552 141.595 24.552C143.995 24.552 145.211 22.6614 145.211 20.6365C145.211 18.6116 143.809 16.6926 141.595 16.6926C139.222 16.6926 137.979 18.6374 137.979 20.6365Z" fill="url(#paint8_linear_203_1463)"/>
<path d="M153.856 13.9652L154.099 15.5149C155.132 13.8671 156.501 13.6243 157.852 13.6243C159.203 13.6243 160.553 14.1641 161.282 14.895L159.797 17.7567C159.477 17.4629 159.103 17.2352 158.695 17.0867C158.287 16.9382 157.854 16.8719 157.42 16.8915C155.693 16.8915 154.099 17.811 154.099 20.2672V27.2898H150.803V13.9652H153.856Z" fill="url(#paint9_linear_203_1463)"/>
<path d="M165.574 13.9652L165.817 15.5149C166.85 13.8671 168.219 13.6243 169.57 13.6243C170.921 13.6243 172.272 14.1641 173 14.895L171.515 17.7567C171.196 17.4627 170.821 17.2348 170.413 17.0863C170.006 16.9378 169.572 16.8716 169.139 16.8915C167.411 16.8915 165.817 17.811 165.817 20.2672V27.2898H162.522V13.9652H165.574Z" fill="url(#paint10_linear_203_1463)"/>
<defs>
<linearGradient id="paint0_linear_203_1463" x1="14.6332" y1="1.6373" x2="15.4086" y2="31.034" gradientUnits="userSpaceOnUse">
<stop stop-color="#0554F1"/>
<stop offset="1" stop-color="#298AE2"/>
</linearGradient>
<linearGradient id="paint1_linear_203_1463" x1="33.3036" y1="2.42347" x2="29.4217" y2="28.3216" gradientUnits="userSpaceOnUse">
<stop stop-color="#CE6200"/>
<stop offset="1" stop-color="#FF8A00"/>
</linearGradient>
<linearGradient id="paint2_linear_203_1463" x1="63.5831" y1="8.17597" x2="64.0841" y2="27.1569" gradientUnits="userSpaceOnUse">
<stop stop-color="#0554F1"/>
<stop offset="1" stop-color="#298AE2"/>
</linearGradient>
<linearGradient id="paint3_linear_203_1463" x1="78.4858" y1="13.663" x2="78.8448" y2="27.2226" gradientUnits="userSpaceOnUse">
<stop stop-color="#0554F1"/>
<stop offset="1" stop-color="#298AE2"/>
</linearGradient>
<linearGradient id="paint4_linear_203_1463" x1="91.2832" y1="13.6965" x2="91.65" y2="27.5738" gradientUnits="userSpaceOnUse">
<stop stop-color="#0554F1"/>
<stop offset="1" stop-color="#298AE2"/>
</linearGradient>
<linearGradient id="paint5_linear_203_1463" x1="106.719" y1="13.7357" x2="107.078" y2="27.3651" gradientUnits="userSpaceOnUse">
<stop stop-color="#EA6A00"/>
<stop offset="1" stop-color="#F98500"/>
</linearGradient>
<linearGradient id="paint6_linear_203_1463" x1="117.302" y1="8.29295" x2="117.803" y2="27.3126" gradientUnits="userSpaceOnUse">
<stop stop-color="#CE6200"/>
<stop offset="1" stop-color="#F98500"/>
</linearGradient>
<linearGradient id="paint7_linear_203_1463" x1="126.974" y1="13.5902" x2="127.348" y2="27.7387" gradientUnits="userSpaceOnUse">
<stop stop-color="#CE6200"/>
<stop offset="1" stop-color="#F98500"/>
</linearGradient>
<linearGradient id="paint8_linear_203_1463" x1="141.43" y1="13.6965" x2="141.794" y2="27.5738" gradientUnits="userSpaceOnUse">
<stop stop-color="#CE6200"/>
<stop offset="1" stop-color="#F98500"/>
</linearGradient>
<linearGradient id="paint9_linear_203_1463" x1="155.848" y1="13.663" x2="156.204" y2="27.2226" gradientUnits="userSpaceOnUse">
<stop stop-color="#CE6200"/>
<stop offset="1" stop-color="#F98500"/>
</linearGradient>
<linearGradient id="paint10_linear_203_1463" x1="167.566" y1="13.663" x2="167.922" y2="27.2226" gradientUnits="userSpaceOnUse">
<stop stop-color="#CE6200"/>
<stop offset="1" stop-color="#F98500"/>
</linearGradient>
</defs>
</svg>
