<svg width="41" height="40" viewBox="0 0 41 40" fill="none" xmlns="http://www.w3.org/2000/svg">
<g clip-path="url(#clip0_151_2184)">
<path d="M15.9834 32.7539H24.5146V38.392H15.9834V32.7539Z" fill="#FDAA8E"/>
<path d="M25.1279 25.8744V31.6867C25.1279 33.6328 23.5503 35.2104 21.6042 35.2104H18.0217C15.4567 35.2104 13.3774 33.1311 13.3774 30.5661V19.7577C13.3774 18.9131 14.0621 18.2285 14.9066 18.2285C15.7511 18.2285 16.4357 18.9131 16.4357 19.7577V23.5641C16.4357 24.84 17.4701 25.8743 18.746 25.8743H25.1279V25.8744Z" fill="#FFC6A1"/>
<path d="M22.6019 30.4219H18.3979C18.2254 30.4219 18.0854 30.282 18.0854 30.1094V13.2266H22.9144V30.1095C22.9144 30.282 22.7746 30.4219 22.6019 30.4219Z" fill="#9F2C41"/>
<path d="M20.5 13.2266V30.422H22.602C22.7745 30.422 22.9145 30.282 22.9145 30.1095V13.2266H20.5Z" fill="#772C41"/>
<path d="M26.8475 18.7881C26.4365 18.0566 25.5098 17.7959 24.7777 18.2057L21.9775 19.7735C21.2454 20.1833 20.985 21.1086 21.3961 21.84C21.8071 22.5715 22.7338 22.8322 23.4659 22.4223L26.2662 20.8546C26.9982 20.4448 27.2586 19.5196 26.8475 18.7881Z" fill="#FFC6A1"/>
<path d="M26.8475 22.2667C26.4365 21.5352 25.5098 21.2745 24.7777 21.6844L21.9774 23.2522C21.2453 23.662 20.985 24.5873 21.396 25.3187C21.807 26.0502 22.7338 26.3109 23.4659 25.901L26.2662 24.3332C26.9982 23.9234 27.2585 22.9982 26.8475 22.2667Z" fill="#FDAA8E"/>
<path d="M26.8475 25.7451C26.4365 25.0136 25.5098 24.7529 24.7777 25.1628L21.9775 26.7305C21.2454 27.1404 20.985 28.0657 21.3961 28.7971C21.8071 29.5286 22.7338 29.7893 23.4659 29.3794L26.2662 27.8116C26.9982 27.4018 27.2586 26.4766 26.8475 25.7451Z" fill="#FFC6A1"/>
<path d="M26.8475 29.2254C26.4365 28.4939 25.5098 28.2332 24.7777 28.6432L21.9774 30.2109C21.2453 30.6207 20.985 31.546 21.396 32.2775C21.807 33.0089 22.7338 33.2696 23.4659 32.8597L26.2662 31.292C26.9982 30.8821 27.2585 29.9568 26.8475 29.2254Z" fill="#FDAA8E"/>
<path d="M25.4992 40.0006H15.5005C15.3279 40.0006 15.188 39.8607 15.188 39.6881V36.8496C15.188 36.677 15.3279 36.5371 15.5005 36.5371H25.4992C25.6718 36.5371 25.8117 36.677 25.8117 36.8496V39.6881C25.8117 39.8607 25.6718 40.0006 25.4992 40.0006Z" fill="#43809F"/>
<path d="M23.3975 36.5371V40.0006H25.4994C25.672 40.0006 25.8119 39.8607 25.8119 39.6881V36.8496C25.8119 36.677 25.672 36.5371 25.4994 36.5371H23.3975Z" fill="#3A7190"/>
<path d="M30.9973 14.8088H10.0027C9.11242 14.8088 8.39062 14.087 8.39062 13.1967V1.61211C8.39062 0.721797 9.11242 0 10.0027 0H30.9973C31.8876 0 32.6094 0.721797 32.6094 1.61211V13.1967C32.6094 14.0871 31.8876 14.8088 30.9973 14.8088Z" fill="#EE4540"/>
<path d="M30.1875 0V14.8088H30.9948C31.8865 14.8088 32.6094 14.0881 32.6094 13.1991V1.60969C32.6094 0.720703 31.8865 0 30.9948 0L30.1875 0Z" fill="#C72C41"/>
<path d="M20.331 3.19727C20.0074 3.19727 19.7451 3.45961 19.7451 3.7832V11.1175C19.7451 11.4411 20.0074 11.7034 20.331 11.7034C20.6547 11.7034 20.917 11.4411 20.917 11.1175V3.7832C20.917 3.45961 20.6546 3.19727 20.331 3.19727Z" fill="#F3F3F3"/>
<path d="M24.6101 3.41418H22.5944C22.4388 3.41418 22.2896 3.47606 22.1796 3.58622C22.0698 3.69637 22.0081 3.84567 22.0084 4.00129C22.0084 4.00137 22.0136 6.73942 22.0136 7.55106C22.0136 8.52926 22.0227 11.0939 22.0228 11.1197C22.0233 11.275 22.0857 11.424 22.1959 11.5334C22.3057 11.6424 22.4541 11.7035 22.6087 11.7035H22.6109C22.6717 11.7032 24.107 11.6977 24.6793 11.6877C25.6804 11.6702 26.5719 11.2168 27.1894 10.4108C27.7574 9.66942 28.0702 8.65661 28.0702 7.55887C28.0703 5.07981 26.6798 3.41418 24.6101 3.41418ZM24.6589 10.516C24.325 10.5218 23.6727 10.5262 23.1927 10.5288C23.19 9.707 23.1855 8.23715 23.1855 7.55098C23.1855 6.97653 23.1829 5.43762 23.1813 4.58606H24.6101C26.2973 4.58606 26.8983 6.12168 26.8983 7.55879C26.8984 9.27692 25.9775 10.4929 24.6589 10.516Z" fill="#F3F3F3"/>
<path d="M17.3637 6.95789C17.7095 6.55891 17.9196 6.03906 17.9196 5.47086C17.9196 4.21719 16.8997 3.19727 15.646 3.19727H13.5156C13.192 3.19727 12.9297 3.45961 12.9297 3.7832V11.1175C12.9297 11.2734 12.9918 11.4228 13.1022 11.5327C13.212 11.6421 13.3607 11.7034 13.5156 11.7034H13.5182C13.5378 11.7034 15.4848 11.6947 16.0181 11.6947C17.4298 11.6947 18.5783 10.5462 18.5783 9.13461C18.5782 8.21633 18.092 7.40976 17.3637 6.95789ZM15.646 4.36914C16.2534 4.36914 16.7477 4.86336 16.7477 5.47086C16.7477 6.07836 16.2535 6.57258 15.646 6.57258C15.4896 6.57258 15.1952 6.57344 14.8741 6.57453H14.1016V4.36914H15.646ZM16.018 10.5229C15.6702 10.5229 14.7262 10.5266 14.1015 10.5291V7.74945C14.3378 7.74844 14.6155 7.74734 14.8761 7.74648H16.018C16.7835 7.74648 17.4063 8.36922 17.4063 9.13476C17.4063 9.90008 16.7836 10.5229 16.018 10.5229Z" fill="#F3F3F3"/>
</g>
<defs>
<clipPath id="clip0_151_2184">
<rect width="40" height="40" fill="white" transform="translate(0.5)"/>
</clipPath>
</defs>
</svg>
