<svg width="40" height="41" viewBox="0 0 40 41" fill="none" xmlns="http://www.w3.org/2000/svg">
<path d="M33.125 22.2188L32.5 27.2188L33.3895 33.4477L22.84 35.2827L21.25 29.7188L19.0336 30.2727C18.6871 30.3593 18.326 30.3708 17.9746 30.3061C17.6233 30.2415 17.2899 30.1024 16.9969 29.898C16.7039 29.6937 16.4581 29.429 16.276 29.1217C16.0939 28.8143 15.9798 28.4715 15.9414 28.1164L15.2367 21.5938L13.125 22.0758L12.5 22.2188L13.125 20.6562L14.5734 17.0344L15 15.9688L13.75 7.84375L16.6461 6.39609C18.8517 5.29289 21.2839 4.7186 23.75 4.71875C26.2364 4.71885 28.6209 5.70661 30.379 7.46474C32.1371 9.22287 33.1249 11.6074 33.125 14.0938V22.2188Z" fill="#FEC093"/>
<path d="M32.778 29.1664L33.1249 31.5937L22.4999 34.0937L21.7554 31.4875L32.778 29.1664Z" fill="#24447F"/>
<path d="M3.125 25.3438H6.875V26.5938H3.125V25.3438Z" fill="#FFD508"/>
<path d="M2.83594 22.1503L3.39469 21.0328L7.14292 22.9069L6.58417 24.0244L2.83594 22.1503Z" fill="#FFD508"/>
<path d="M2.83813 29.7732L6.58637 27.8991L7.14512 29.0166L3.39688 30.8907L2.83813 29.7732Z" fill="#FFD508"/>
<path d="M33.125 22.2188L30.2583 23.2938C29.9991 23.3909 29.7216 23.4295 29.4457 23.4068C29.1699 23.384 28.9025 23.3004 28.6627 23.1621C28.423 23.0237 28.2168 22.834 28.0591 22.6065C27.9014 22.379 27.796 22.1194 27.7505 21.8464L26.875 16.5938H23.75L23.125 20.9688C22.462 20.9688 21.8261 20.7054 21.3572 20.2365C20.8884 19.7677 20.625 19.1318 20.625 18.4688V15.3438L18.75 11.2812L15.8743 11.7126C15.4563 11.7753 15.0296 11.7471 14.6235 11.6298C14.2173 11.5126 13.8412 11.3091 13.5209 11.0333C13.2006 10.7574 12.9436 10.4157 12.7674 10.0314C12.5912 9.64719 12.5 9.22944 12.5 8.80672C12.5 8.70515 12.5283 8.6056 12.5817 8.5192C12.6351 8.43281 12.7115 8.36299 12.8023 8.31758L16.6461 6.3957C18.8518 5.29287 21.284 4.71873 23.75 4.71875C26.2364 4.71875 28.621 5.70647 30.3791 7.46462C32.1373 9.22278 33.125 11.6073 33.125 14.0938V22.2188Z" fill="#BC6549"/>
<path d="M23.8691 21.5938H23.7427C23.5789 21.5938 23.4218 21.5287 23.3059 21.4128C23.1901 21.297 23.125 21.1398 23.125 20.976V16.9624C23.125 16.8319 23.1507 16.7027 23.2006 16.5821C23.2505 16.4616 23.3237 16.352 23.416 16.2598C23.5083 16.1675 23.6178 16.0943 23.7384 16.0444C23.859 15.9944 23.9882 15.9687 24.1187 15.9688H25.747C25.9575 15.9688 26.1654 16.0161 26.3553 16.1071C26.5451 16.1982 26.7121 16.3308 26.8439 16.4951C26.9756 16.6594 27.0688 16.8511 27.1166 17.0562C27.1643 17.2613 27.1654 17.4745 27.1197 17.6801L26.7665 19.2696C26.62 19.9288 26.2531 20.5184 25.7263 20.9409C25.1995 21.3635 24.5444 21.5937 23.8691 21.5938Z" fill="#F5AF7D"/>
<path d="M21.689 14.6266L8.91162 22.5969L12.8616 28.9297L25.6397 20.9602L21.689 14.6266Z" fill="#C9191F"/>
<path d="M15.2366 21.5938L15.8296 27.0789L12.8616 28.9297L8.91162 22.5969L13.1249 19.9688V22.0758L15.2366 21.5938Z" fill="#E51C23"/>
<path d="M18.7501 25.2571V17.768C18.7525 17.3771 18.6256 16.9964 18.3892 16.6852L21.6892 14.6266L25.6399 20.9602L18.7501 25.2571Z" fill="#E51C23"/>
<path d="M18.3891 16.6851L13.125 19.9687V18.9429C13.125 18.6086 13.2144 18.2804 13.3839 17.9922C13.5534 17.704 13.7969 17.4664 14.0891 17.3039L14.5734 17.0344L16.0805 16.1976C16.4593 15.9865 16.9017 15.9196 17.326 16.0092C17.7503 16.0988 18.1279 16.3389 18.3891 16.6851Z" fill="#F5AF7D"/>
<path d="M22.7616 26.6234L18.1249 29.714L17.7038 30.2406C17.2338 30.099 16.8159 29.8219 16.5024 29.4441C16.1889 29.0663 15.9938 28.6045 15.9413 28.1164L15.8296 27.0789L18.7499 25.257V25.964L20.6194 24.8429C20.978 24.6279 21.3981 24.5388 21.8131 24.5897C22.2281 24.6407 22.6142 24.8288 22.9101 25.1242C23.0119 25.2261 23.0898 25.3494 23.1383 25.4851C23.1868 25.6208 23.2045 25.7655 23.1903 25.9089C23.1761 26.0523 23.1303 26.1907 23.0562 26.3143C22.9821 26.4378 22.8815 26.5434 22.7616 26.6234Z" fill="#F5AF7D"/>
<path d="M18.75 17.768V25.2571L15.8297 27.0789L15.2367 21.5938L13.125 22.0758V19.9688L18.3891 16.6852C18.6255 16.9964 18.7524 17.3771 18.75 17.768Z" fill="#C9191F"/>
<path d="M14.8305 16.2018L12.8395 17.308C12.5471 17.4703 12.3036 17.7079 12.134 17.9961C11.9644 18.2843 11.875 18.6126 11.875 18.947V27.8437L1.25 39.0937H9.375L16.875 29.7187L21.5118 26.6276C21.6317 26.5476 21.7323 26.4421 21.8064 26.3186C21.8806 26.1951 21.9264 26.0567 21.9406 25.9133C21.9548 25.77 21.937 25.6253 21.8886 25.4896C21.8401 25.354 21.7621 25.2308 21.6602 25.1289C21.3646 24.8332 20.9785 24.6449 20.5635 24.5938C20.1485 24.5427 19.7283 24.6318 19.3698 24.8469L17.5 25.9687V17.7726C17.5 17.4597 17.4183 17.1522 17.263 16.8805C17.1076 16.6089 16.8841 16.3825 16.6144 16.2239C16.3447 16.0652 16.0382 15.9797 15.7254 15.9758C15.4125 15.9719 15.104 16.0498 14.8305 16.2018Z" fill="#FEC093"/>
<path d="M38.125 35.4977V39.0938H8.125C8.12496 38.5626 8.30668 38.0474 8.63996 37.6338C8.97324 37.2203 9.43801 36.9332 9.95703 36.8203L22.5 34.0938L33.125 31.5938C33.7183 31.4454 34.3375 31.4342 34.9358 31.5611C35.534 31.6879 36.0955 31.9495 36.5775 32.3258C37.0595 32.7022 37.4494 33.1834 37.7175 33.733C37.9857 34.2826 38.125 34.8861 38.125 35.4977Z" fill="#3F51B5"/>
</svg>
