<svg width="41" height="41" viewBox="0 0 41 41" fill="none" xmlns="http://www.w3.org/2000/svg">
<path d="M33.3284 13.7794V17.0937C33.3284 21.9187 29.4034 25.8437 24.5784 25.8437H9.69086C10.2871 29.3894 13.3634 32.0937 17.0784 32.0937H34.5784L38.3284 35.8437V20.8437C38.3284 17.5794 36.2396 14.81 33.3284 13.7794Z" fill="#FAB400"/>
<path d="M12.1909 25.8438H9.69086C10.2871 29.3894 13.3634 32.0938 17.0784 32.0938H19.5784C15.8634 32.0938 12.7871 29.3894 12.1909 25.8438Z" fill="#DC9600"/>
<path d="M10.8284 5.84375C6.68649 5.84375 3.32837 9.20188 3.32837 13.3438V28.3438L7.07837 24.5938H24.5784C28.7202 24.5938 32.0784 21.2356 32.0784 17.0938V13.3438C32.0784 9.20188 28.7202 5.84375 24.5784 5.84375H10.8284Z" fill="#FA6450"/>
<path d="M5.82837 13.3438C5.82837 9.20188 9.18649 5.84375 13.3284 5.84375H10.8284C6.68649 5.84375 3.32837 9.20188 3.32837 13.3438V28.3438L5.82837 25.8438V13.3438Z" fill="#DC4632"/>
<path d="M14.5784 17.0938C13.8877 17.0938 13.3284 16.5344 13.3284 15.8438C13.3284 15.1531 13.8877 14.5938 14.5784 14.5938C15.269 14.5938 15.8284 15.1531 15.8284 15.8438C15.8284 16.5344 15.269 17.0938 14.5784 17.0938Z" fill="#F0F0F0"/>
<path d="M18.3284 17.0938C17.6377 17.0938 17.0784 16.5344 17.0784 15.8438C17.0784 15.1531 17.6377 14.5938 18.3284 14.5938C19.019 14.5938 19.5784 15.1531 19.5784 15.8438C19.5784 16.5344 19.019 17.0938 18.3284 17.0938Z" fill="#F0F0F0"/>
<path d="M22.0784 17.0938C21.3877 17.0938 20.8284 16.5344 20.8284 15.8438C20.8284 15.1531 21.3877 14.5938 22.0784 14.5938C22.769 14.5938 23.3284 15.1531 23.3284 15.8438C23.3284 16.5344 22.769 17.0938 22.0784 17.0938Z" fill="#F0F0F0"/>
</svg>
