<svg width="41" height="40" viewBox="0 0 41 40" fill="none" xmlns="http://www.w3.org/2000/svg">
<g clip-path="url(#clip0_669_2099)">
<path d="M20.2061 0C9.15996 0 0.206055 8.95469 0.206055 20C0.206055 31.0453 9.15996 40 20.2061 40C31.2521 40 40.2061 31.0453 40.2061 20C40.2061 8.95469 31.2514 0 20.2061 0Z" fill="#57B236"/>
<path d="M0.206077 20C0.201107 23.3066 1.01976 26.5624 2.58811 29.4734C4.58567 30.0599 6.65701 30.357 8.73889 30.3555C20.7623 30.3555 30.5092 20.6086 30.5092 8.58517C30.5103 6.47155 30.2037 4.36904 29.599 2.34376C26.7086 0.801532 23.4822 -0.00352056 20.2061 1.15728e-05C9.15998 1.15728e-05 0.206077 8.9547 0.206077 20Z" fill="#6FBA47"/>
<path d="M31.6124 16.6891L19.5906 29.3133C19.2632 29.657 18.8697 29.9311 18.4338 30.119C17.9979 30.3069 17.5285 30.4049 17.0538 30.407H17.0374C16.5654 30.4071 16.0982 30.3124 15.6635 30.1284C15.2288 29.9444 14.8355 29.6749 14.507 29.3359L8.12806 22.7641C7.79847 22.4332 7.53787 22.0402 7.36138 21.6079C7.1849 21.1755 7.09604 20.7124 7.09998 20.2454C7.10391 19.7784 7.20056 19.3169 7.3843 18.8876C7.56804 18.4582 7.83523 18.0697 8.17035 17.7444C8.50546 17.4192 8.90184 17.1638 9.33648 16.9929C9.77111 16.8221 10.2353 16.7393 10.7022 16.7494C11.1691 16.7594 11.6294 16.8621 12.0562 17.0514C12.4831 17.2408 12.8682 17.513 13.189 17.8523L17.0124 21.7914L26.5038 11.825C26.8232 11.4896 27.2055 11.2203 27.629 11.0326C28.0524 10.845 28.5087 10.7425 28.9717 10.7312C29.4347 10.7198 29.8954 10.7998 30.3276 10.9665C30.7597 11.1332 31.1547 11.3834 31.4902 11.7027C31.8256 12.0221 32.0948 12.4044 32.2825 12.8279C32.4702 13.2513 32.5726 13.7076 32.584 14.1706C32.5954 14.6336 32.5154 15.0943 32.3487 15.5264C32.182 15.9586 31.9318 16.3536 31.6124 16.6891Z" fill="white"/>
</g>
<defs>
<clipPath id="clip0_669_2099">
<rect width="40" height="40" fill="white" transform="translate(0.171631)"/>
</clipPath>
</defs>
</svg>
