<svg width="41" height="41" viewBox="0 0 41 41" fill="none" xmlns="http://www.w3.org/2000/svg">
<g clip-path="url(#clip0_151_2340)">
<path d="M36.1854 30.1285C36.1869 30.3725 36.1434 30.6146 36.0569 30.8428C35.9554 31.1451 35.7841 31.4191 35.5569 31.6428C35.1557 32.0452 34.6108 32.2714 34.0426 32.2713H32.614C33.7975 32.2713 34.7569 33.2307 34.7569 34.4142C34.7584 34.6582 34.7148 34.9004 34.6283 35.1285C34.5269 35.4308 34.3555 35.7049 34.1283 35.9285C33.7271 36.3309 33.1822 36.5571 32.614 36.5571H31.1854C32.3689 36.5571 33.3283 37.5165 33.3283 38.6999C33.3283 39.8834 32.3689 40.8428 31.1854 40.8428H18.3283C17.2354 40.8599 16.1494 40.6684 15.1283 40.2785C14.4283 39.9999 13.814 39.5499 13.1354 39.2213C12.415 38.8774 11.6266 38.6992 10.8283 38.6999H9.04257L10.4711 24.4142C11.9252 24.4126 13.3482 23.9936 14.5711 23.2071C17.1497 21.5642 21.0569 18.5785 20.214 14.7785C19.9283 13.4999 19.8211 12.2499 21.1854 11.5571C22.6997 10.7856 24.1497 11.7642 24.8569 12.9999C27.2354 17.1642 23.0783 23.6999 23.0783 23.6999H33.3283C34.5118 23.6999 35.4711 24.6593 35.4711 25.8428C35.4727 26.0868 35.4291 26.3289 35.3426 26.5571C35.2411 26.8593 35.0698 27.1334 34.8426 27.3571C34.4414 27.7595 33.8965 27.9857 33.3283 27.9856H34.0426C35.226 27.9856 36.1854 28.945 36.1854 30.1285Z" fill="#FDD7AD"/>
<path d="M34.6284 35.1289C34.5269 35.4312 34.3556 35.7053 34.1284 35.9289C33.7272 36.3314 33.1823 36.5575 32.6141 36.5575H29.0427C28.6482 36.5575 28.3284 36.2377 28.3284 35.8432C28.3284 35.4487 28.6482 35.1289 29.0427 35.1289H34.6284Z" fill="#F9C795"/>
<path d="M36.0569 30.8438C35.9555 31.146 35.7842 31.4201 35.5569 31.6437C35.1558 32.0462 34.6109 32.2724 34.0427 32.2723H29.0427C28.6482 32.2723 28.3284 31.9525 28.3284 31.558C28.3284 31.1635 28.6482 30.8438 29.0427 30.8438H36.0569Z" fill="#F9C795"/>
<path d="M35.3427 26.5566C35.2412 26.8589 35.0699 27.133 34.8427 27.3566C34.4415 27.7591 33.8966 27.9853 33.3284 27.9852H29.0427C28.6482 27.9852 28.3284 27.6654 28.3284 27.2709C28.3284 26.8764 28.6482 26.5566 29.0427 26.5566H35.3427Z" fill="#F9C795"/>
<path d="M8.3283 22.2714H4.75687C3.5734 22.2714 2.61401 23.2308 2.61401 24.4142V38.6999C2.61401 39.8834 3.5734 40.8428 4.75687 40.8428H8.3283C9.51177 40.8428 10.4712 39.8834 10.4712 38.6999V24.4142C10.4712 23.2308 9.51177 22.2714 8.3283 22.2714Z" fill="#3B97D3"/>
<path d="M35.4711 16.5564C35.0766 16.5564 34.7568 16.2366 34.7568 15.8421V14.4135C34.7568 14.019 35.0766 13.6992 35.4711 13.6992C35.8656 13.6992 36.1854 14.019 36.1854 14.4135V15.8421C36.1854 16.2366 35.8656 16.5564 35.4711 16.5564Z" fill="#FF5364"/>
<path d="M35.4709 20.8415C35.0764 20.8415 34.7566 20.5217 34.7566 20.1272V18.6987C34.7566 18.3042 35.0764 17.9844 35.4709 17.9844C35.8654 17.9844 36.1852 18.3042 36.1852 18.6987V20.1272C36.1852 20.5217 35.8654 20.8415 35.4709 20.8415Z" fill="#FF5364"/>
<path d="M38.3282 17.9852H36.8996C36.5051 17.9852 36.1853 17.6654 36.1853 17.2709C36.1853 16.8764 36.5051 16.5566 36.8996 16.5566H38.3282C38.7226 16.5566 39.0424 16.8764 39.0424 17.2709C39.0424 17.6654 38.7226 17.9852 38.3282 17.9852Z" fill="#FF5364"/>
<path d="M34.0425 17.9852H32.6139C32.2195 17.9852 31.8997 17.6654 31.8997 17.2709C31.8997 16.8764 32.2195 16.5566 32.6139 16.5566H34.0425C34.437 16.5566 34.7568 16.8764 34.7568 17.2709C34.7568 17.6654 34.437 17.9852 34.0425 17.9852Z" fill="#FF5364"/>
<path d="M19.0428 6.55762C18.8534 6.55758 18.6717 6.4823 18.5378 6.34834L17.4664 5.27691C17.2807 5.09757 17.2062 4.832 17.2716 4.58226C17.337 4.33253 17.532 4.13749 17.7817 4.07213C18.0315 4.00676 18.297 4.08123 18.4764 4.26691L19.5478 5.33834C19.752 5.54262 19.8131 5.84979 19.7026 6.11666C19.592 6.38353 19.3317 6.55756 19.0428 6.55762Z" fill="#955BA5"/>
<path d="M15.8283 3.34279C15.6389 3.34274 15.4572 3.26746 15.3233 3.1335L14.2519 2.06207C13.9812 1.7818 13.985 1.3363 14.2606 1.06077C14.5361 0.785248 14.9816 0.781377 15.2619 1.05207L16.3333 2.1235C16.5375 2.32778 16.5986 2.63495 16.4881 2.90182C16.3775 3.16869 16.1172 3.34272 15.8283 3.34279Z" fill="#955BA5"/>
<path d="M14.7569 6.55762C14.468 6.55756 14.2076 6.38353 14.0971 6.11666C13.9866 5.84979 14.0477 5.54262 14.2519 5.33834L15.3233 4.26691C15.5026 4.08123 15.7682 4.00676 16.018 4.07213C16.2677 4.13749 16.4627 4.33253 16.5281 4.58226C16.5935 4.832 16.519 5.09757 16.3333 5.27691L15.2619 6.34834C15.128 6.4823 14.9463 6.55758 14.7569 6.55762Z" fill="#955BA5"/>
<path d="M17.9712 3.34278C17.6823 3.34272 17.4219 3.16869 17.3114 2.90182C17.2009 2.63495 17.262 2.32778 17.4662 2.12349L18.5376 1.05207C18.7169 0.866382 18.9825 0.791913 19.2322 0.857281C19.482 0.92265 19.677 1.11768 19.7424 1.36742C19.8078 1.61715 19.7333 1.88273 19.5476 2.06207L18.4762 3.13349C18.3422 3.26746 18.1606 3.34274 17.9712 3.34278Z" fill="#955BA5"/>
<path d="M34.1606 7.07447C32.3644 7.75452 30.9484 9.17574 30.2749 10.9745C30.2207 11.1147 30.0845 11.206 29.9342 11.2028C29.7839 11.1996 29.6517 11.1026 29.6035 10.9602C28.9218 9.16994 27.508 7.7561 25.7178 7.07447C25.5714 7.02812 25.4719 6.89228 25.4719 6.73875C25.4719 6.58522 25.5714 6.44939 25.7178 6.40304C27.5119 5.72743 28.9279 4.31145 29.6035 2.51732C29.6498 2.37095 29.7857 2.27148 29.9392 2.27148C30.0927 2.27148 30.2286 2.37095 30.2749 2.51732C30.9506 4.31638 32.3734 5.73394 34.1749 6.40304C34.3151 6.45724 34.4064 6.59345 34.4032 6.74376C34.4 6.89407 34.303 7.02628 34.1606 7.07447Z" fill="#F3D55B"/>
<path d="M12.9996 13.365C12.0143 13.8472 11.2176 14.6439 10.7354 15.6293C10.681 15.7588 10.5543 15.843 10.4139 15.843C10.2735 15.843 10.1468 15.7588 10.0925 15.6293C9.61185 14.6428 8.81471 13.8457 7.82822 13.365C7.69874 13.3107 7.6145 13.184 7.6145 13.0436C7.6145 12.9032 7.69874 12.7765 7.82822 12.7221C8.81471 12.2415 9.61185 11.4443 10.0925 10.4579C10.1468 10.3284 10.2735 10.2441 10.4139 10.2441C10.5543 10.2441 10.681 10.3284 10.7354 10.4579C11.2176 11.4433 12.0143 12.24 12.9996 12.7221C13.1291 12.7765 13.2134 12.9032 13.2134 13.0436C13.2134 13.184 13.1291 13.3107 12.9996 13.365Z" fill="#F3D55B"/>
</g>
<defs>
<clipPath id="clip0_151_2340">
<rect width="40" height="40" fill="white" transform="translate(0.828369 0.84375)"/>
</clipPath>
</defs>
</svg>
