<svg width="41" height="41" viewBox="0 0 41 41" fill="none" xmlns="http://www.w3.org/2000/svg">
<g clip-path="url(#clip0_151_2455)">
<path d="M39.3701 37.2359V28.0095C39.3701 24.924 37.0251 22.3862 34.0202 22.0811C33.8199 22.0607 33.6166 22.1102 33.411 22.1102C30.1198 22.1102 27.5872 24.7594 27.5872 28.0506L27.5873 37.197L39.3701 37.2359Z" fill="#855B51"/>
<path d="M34.0549 22.0856C31.0666 22.4067 28.7398 24.9363 28.7398 28.0099V37.1681L27.4521 37.1979V28.0099C27.4521 24.719 30.1201 22.051 33.4111 22.051C33.6284 22.051 33.8433 22.0623 34.0549 22.0856Z" fill="#724D44"/>
<path d="M35.074 40.5932V34.3493L34.8272 33.6197L35.074 31.4766H31.7478L31.8886 34.8668L31.7478 35.9936V40.5932L33.4103 40.8435L35.074 40.5932Z" fill="#C48958"/>
<path d="M31.6833 35.0234L28.4143 36.3175L28.8113 40.8431H33.4104L33.1704 40.579C32.0248 39.3183 31.8015 37.6899 31.7582 35.9932C31.7487 35.6198 31.6833 35.4003 31.6833 35.0234Z" fill="#FFD163"/>
<path d="M31.7587 35.9939L31.7483 35.9979L28.5032 37.3315L28.4074 36.2401L31.7483 34.8671L31.8887 35.4283L31.7587 35.9939Z" fill="#FFB65F"/>
<path d="M38.4878 36.2736L35.0741 34.867C35.0741 36.9283 35.0518 39.0483 33.6392 40.5935L33.4104 40.8438H38.929C39.374 40.8438 39.7346 40.4831 39.7346 40.0382V38.1359C39.7346 37.3198 39.2423 36.5844 38.4878 36.2736Z" fill="#FFD163"/>
<path d="M31.7484 31.4766H31.7478C31.7478 31.4766 31.7482 34.3445 31.7484 34.3446C31.7484 34.3446 31.7493 35.6199 31.7589 35.9933L32.5952 35.6496C32.7159 35.5999 32.7947 35.4824 32.7947 35.3518V34.9944C32.7947 34.8948 32.8844 34.8198 32.9827 34.8364C33.1259 34.8606 33.2685 34.8729 33.4098 34.8729C33.9812 34.8729 34.5454 34.6798 35.0734 34.349V31.4766H31.7484V31.4766Z" fill="#B27A49"/>
<path d="M29.8406 28.7303C29.8478 29.0202 29.7364 29.2443 29.7973 29.5403C30.2376 31.679 31.9713 33.8282 33.4104 33.8282C35.074 33.8282 37.1289 30.9595 37.1289 28.5525C37.1289 27.0627 36.6265 25.7476 35.6728 24.9616C35.4744 24.798 35.3111 24.8131 35.074 24.6986C34.9994 24.6625 34.9115 24.7045 34.8913 24.785C34.4466 26.5618 32.9392 28.0193 31.101 28.4016L29.9425 28.6023C29.8824 28.6151 29.8406 28.7303 29.8406 28.7303Z" fill="#C48958"/>
<path d="M31.3432 29.1971C33.4662 28.7394 35.1805 27.0172 35.6724 24.9617C35.4739 24.7981 35.2564 24.6569 35.0194 24.5423C34.9447 24.5063 34.8568 24.5482 34.8367 24.6287C34.392 26.4055 32.9116 27.8742 31.0734 28.2563L29.7949 28.5299C29.735 28.5427 29.6924 28.5961 29.6931 28.6573V28.6579C29.7003 28.9478 29.7369 29.2437 29.7978 29.5397L31.3432 29.1971Z" fill="#B27A49"/>
<path d="M14.5695 36.7867L9.90894 35.1262C9.03159 36.1389 7.51135 36.0228 6.63441 35.0098L3.27023 36.4078C2.51578 36.7187 2.0027 37.3191 2.0027 38.1352V39.957C2.0027 40.402 2.36343 40.7626 2.80833 40.7626L2.9685 40.8431H6.58218L8.19264 40.6367L9.90853 40.8431H12.8816L14.5695 40.5443V36.7867Z" fill="#BAE6EF"/>
<path d="M9.79194 32.2832H6.7439L6.75758 34.7029C7.04716 35.0372 7.23798 35.4273 7.62889 35.5408C8.42172 35.7712 9.32023 35.5474 9.90784 34.8697L9.90889 34.8685V33.5906L9.79194 32.2832Z" fill="#F2D1A5"/>
<path d="M7.31924 35.5509L3.81445 37.1372L3.56729 37.2407C3.2035 37.3904 2.96849 37.7413 2.96849 38.1348V40.8431H2.72777C2.2827 40.8431 1.92213 40.4825 1.92213 40.0375V38.1348C1.92213 37.3195 2.41469 36.5839 3.16881 36.2733L6.42877 35.0098C6.65598 35.2368 7.31924 35.5509 7.31924 35.5509Z" fill="#94D8E6"/>
<path d="M13.7089 36.4325L9.90846 40.8438H6.5821L3.81461 37.1377L3.27795 36.3188L5.09993 35.6852L6.5829 34.8671C7.45936 35.8804 9.03119 35.8804 9.90846 34.8679V34.8671L13.7089 36.4325Z" fill="#F8F7F7"/>
<path d="M7.62904 32.2832H6.58276V33.5911V34.8691V35.0323L7.41415 35.5494C7.41415 35.5494 7.60192 35.5276 7.62904 35.5387V34.1936C7.62904 34.0949 7.71717 34.0201 7.81472 34.0352C7.95814 34.0575 8.10164 34.0691 8.24474 34.0691C8.80248 34.0691 9.36828 33.8953 9.90832 33.5902V32.2832H7.62904Z" fill="#F2BB88"/>
<path d="M7.62917 35.5391V35.5399L3.81428 37.1375L3.16962 36.2739L6.5829 34.8671C6.63835 34.8946 6.85936 35.2951 7.62917 35.5391Z" fill="#E8E8E8"/>
<path d="M12.0757 27.7706C12.0757 25.2391 10.7767 23.6953 8.24531 23.6953C5.71388 23.6953 4.41481 25.2391 4.41481 27.7706C4.41481 28.3051 4.43075 28.8482 4.59936 29.3723C5.22914 31.3298 6.866 33.0228 8.24523 33.0228C9.61288 33.0228 11.232 31.3605 11.8738 29.4257C12.0532 28.8852 12.0757 28.3233 12.0757 27.7706Z" fill="#F2D1A5"/>
<path d="M10.4064 24.2028C10.1371 24.2329 9.88539 24.3002 9.6734 24.3919L9.67034 24.4C9.6511 24.2007 9.59968 24.0141 9.51477 23.8469C9.1307 23.7474 8.70736 23.6953 8.24515 23.6953C5.71364 23.6953 4.33424 25.2391 4.33424 27.7706C4.33424 28.3051 4.43155 28.8479 4.60016 29.372C4.65626 29.3211 4.71694 29.264 4.7831 29.1965C5.28442 28.6848 6.1274 27.8359 7.12169 27.4019C7.72974 27.1364 8.24434 27.0632 8.64217 26.717C8.71984 26.6494 8.83766 26.6676 8.8895 26.7566C9.0709 27.0679 9.47428 27.496 10.2886 27.9797C10.9829 28.3922 11.5729 28.9764 11.8737 29.4257C12.053 28.8852 12.1561 28.3234 12.1561 27.7706C12.1561 26.094 11.5504 24.8514 10.4064 24.2028Z" fill="#F2BB88"/>
<path d="M9.67989 23.4329C9.96584 23.3089 10.319 23.142 10.6964 23.1387C11.277 23.1336 11.9005 23.3089 12.3657 23.7799C13.8884 25.3218 13.0889 27.6993 12.504 28.7429C12.4495 28.8401 12.3164 28.8552 12.2427 28.7717C11.9501 28.4406 11.2298 27.6832 10.2631 27.0644C9.94862 26.863 9.67739 26.6265 9.45582 26.3706C9.19795 26.0729 9.11715 25.6847 9.00415 25.3602L9.67989 23.4329Z" fill="#8E868E"/>
<path d="M10.5345 24.6493C10.318 25.2892 9.94539 25.8759 9.45686 26.3701C9.19771 26.0731 9.00696 25.7495 8.89429 25.4252L9.67336 23.3455C9.95988 23.2216 10.3188 23.1419 10.6963 23.1387C10.7623 23.6151 10.7092 24.1326 10.5345 24.6493Z" fill="#766D78"/>
<path d="M9.45065 22.687C9.18441 22.2712 8.7086 22.0089 8.12461 21.9158C7.18972 21.767 6.022 22.1988 4.94924 22.9829C2.92687 24.461 3.34055 27.3567 3.97492 28.6424C4.02908 28.7522 4.1791 28.7657 4.25089 28.6665C4.36148 28.5138 4.53685 28.4014 4.78304 28.1501C5.28437 27.6383 6.07697 27.0064 7.20212 26.5969C9.23069 25.8586 10.143 23.7686 9.45065 22.687Z" fill="#8E868E"/>
<path d="M8.13385 21.9167C7.4256 22.0181 6.65779 22.3183 5.95116 22.835C4.19663 24.1171 4.3085 26.6588 4.78335 28.1493C4.53707 28.4004 4.36081 28.6226 4.25055 28.7755C4.17892 28.8745 4.02842 28.8608 3.9745 28.7513C3.34029 27.4652 2.88234 24.3135 4.90488 22.835C5.98174 22.0479 7.19783 21.7638 8.13385 21.9167Z" fill="#766D78"/>
<path d="M12.299 16.4416L10.4289 16.4312C10.2025 16.4312 9.985 16.5202 9.82347 16.6791L8.56391 17.917C8.39506 18.0831 8.12391 18.0822 7.95627 17.9148L6.72222 16.6835C6.56037 16.5219 6.34106 16.4312 6.11241 16.4312H4.17035C3.31216 16.4312 2.61647 15.7355 2.61647 14.8773V9.4371C2.61647 8.75662 2.97341 8.09778 3.58243 7.88748C3.74146 7.83259 3.91224 7.80273 4.08995 7.80273H13.9822V14.9579C13.9822 15.1358 13.9523 15.3067 13.8973 15.4658C13.6867 16.0745 12.9793 16.4416 12.299 16.4416Z" fill="#F8F7F7"/>
<path d="M13.8966 15.4642C13.6865 16.0726 13.1086 16.5105 12.4285 16.5105H10.5098C10.2829 16.5105 10.0656 16.5998 9.9038 16.7583L8.56376 18.0767C8.39555 18.2425 8.12432 18.2416 7.95611 18.0742L6.64182 16.7624C6.48005 16.6014 6.26034 16.5105 6.03176 16.5105H4.08971C3.23176 16.5105 2.53639 15.8143 2.53639 14.9563V9.35553C2.53639 8.67465 2.97341 8.09597 3.58267 7.88672V14.9563C3.58267 15.2364 3.80963 15.4642 4.08971 15.4642H6.03176C6.54122 15.4642 7.02009 15.6622 7.38066 16.0219L8.0382 16.6787C8.16376 16.8034 8.36577 16.8042 8.49213 16.6803L9.1706 16.0123C9.52714 15.6614 10.0084 15.4642 10.5098 15.4642H13.8966Z" fill="#E8E8E8"/>
<path d="M8.13169 10.9726C8.2034 11.0402 8.31591 11.0382 8.38802 10.971C8.64485 10.7316 8.99261 10.5848 9.37289 10.586C10.1529 10.5883 10.7895 11.2288 10.7784 11.9986C10.7638 13.0151 9.67913 13.8849 8.93788 14.3615C8.67599 14.5299 8.45756 14.5439 8.34368 14.6033C8.29056 14.631 8.22738 14.6316 8.1737 14.6051C7.72992 14.3861 5.82038 13.4135 5.84895 11.9954C5.86046 11.4237 6.14014 10.9452 6.63326 10.7282C6.68436 10.7057 6.73563 10.654 6.79132 10.6381C6.90714 10.605 7.02851 10.5869 7.15334 10.586C7.5337 10.5833 7.87728 10.7328 8.13169 10.9726Z" fill="#DF646E"/>
<path d="M8.93773 14.3618C8.67616 14.53 8.45644 14.6491 8.34296 14.7087C8.28984 14.7369 8.22706 14.7377 8.17314 14.7111C7.72888 14.4922 5.71036 13.4169 5.73934 11.9988C5.75221 11.3678 6.19809 10.8085 6.79125 10.6387C6.59246 10.8825 6.47093 11.19 6.46368 11.5159C6.44034 12.6644 8.07817 13.8395 8.93773 14.3618Z" fill="#DC4955"/>
<path d="M37.4693 16.4313H35.5505C35.324 16.4313 35.1066 16.5203 34.945 16.6792L33.6855 17.9976C33.5166 18.1637 33.2455 18.1627 33.0778 17.9954L31.8438 16.6835C31.6819 16.522 31.4626 16.4313 31.234 16.4313H29.2919C28.4337 16.4313 27.738 15.7356 27.738 14.8774L27.8407 7.96185L29.4078 7.80273H37.5498C38.408 7.80273 39.1037 8.49843 39.1037 9.35662V14.9578C39.1037 15.1357 39.0738 15.3066 39.0188 15.4658C38.8084 16.0746 38.1496 16.4313 37.4693 16.4313Z" fill="#F8F7F7"/>
<path d="M33.2538 10.9726C33.3255 11.0402 33.438 11.0382 33.5101 10.971C33.7669 10.7316 34.1147 10.5848 34.495 10.586C35.275 10.5883 35.9115 11.2288 35.9004 11.9986C35.8859 13.0151 34.8012 13.8849 34.06 14.3615C33.7981 14.5299 33.5796 14.5439 33.4657 14.6033C33.4126 14.631 33.3495 14.6316 33.2958 14.6051C32.852 14.3861 30.9424 13.4135 30.971 11.9954C30.9825 11.4237 31.2622 10.9452 31.7553 10.7282C31.8064 10.7057 31.8577 10.654 31.9134 10.6381C32.0292 10.605 32.1506 10.5869 32.2754 10.586C32.6558 10.5833 32.9994 10.7328 33.2538 10.9726Z" fill="#DF646E"/>
<path d="M34.0598 14.3618C33.7982 14.53 33.5785 14.6491 33.465 14.7087C33.4119 14.7369 33.3491 14.7377 33.2952 14.7111C32.8509 14.4922 30.8324 13.4169 30.8614 11.9988C30.8743 11.3678 31.3201 10.8085 31.9133 10.6387C31.7145 10.8825 31.593 11.19 31.5857 11.5159C31.5624 12.6644 33.2002 13.8395 34.0598 14.3618Z" fill="#DC4955"/>
<path d="M35.6309 15.4656C35.1271 15.4656 34.6514 15.6604 34.2917 16.0137L33.4997 16.7936C33.4369 16.8555 33.3355 16.8547 33.2728 16.7928L32.5025 16.0233C32.1444 15.666 31.6599 15.4656 31.1536 15.4656H29.2116C28.9311 15.4656 28.7037 15.2382 28.7037 14.9577V12.1402C28.7037 12.1019 28.718 12.0652 28.7428 12.036C28.8198 11.9452 28.8893 11.8495 28.95 11.7488C29.2494 11.2506 29.408 10.6792 29.408 10.0965V7.80273H27.6575V14.9577C27.6575 15.816 28.3532 16.5118 29.2116 16.5118H31.1536C31.3822 16.5118 31.6019 16.6027 31.7637 16.7637L33.078 18.0756C33.2454 18.243 33.5166 18.2438 33.6856 18.078L35.0257 16.7597C35.1874 16.6011 35.4048 16.5118 35.6309 16.5118H37.5496C38.2305 16.5118 38.8084 16.074 39.0184 15.4655L35.6309 15.4656Z" fill="#E8E8E8"/>
<path d="M25.957 12.0643L23.6308 12.1431C23.2623 12.1431 22.9114 12.3 22.6657 12.5745L21.3149 14.0611C21.0734 14.3311 20.6503 14.3294 20.4109 14.0575L19.1615 12.5447C18.9156 12.2654 18.5616 12.1054 18.1895 12.1054L15.5229 12.2546C14.3309 12.2546 13.3643 11.288 13.3643 10.0961V3.0023C13.3643 2.21719 13.7837 1.52963 14.4106 1.152C14.7354 0.956265 15.1159 0.84375 15.5228 0.84375H26.2032C27.3951 0.84375 28.3614 1.81003 28.3614 3.00198V10.0961C28.3614 10.5029 28.2489 10.8834 28.0533 11.2083C27.6755 11.8351 26.7422 12.0643 25.957 12.0643Z" fill="#F8F7F7"/>
<path d="M28.0534 11.2087C27.6752 11.8356 26.9878 12.255 26.2031 12.255H23.6301C23.2615 12.255 22.9106 12.4119 22.6643 12.6863L21.317 14.1922C21.0756 14.4626 20.6522 14.461 20.4132 14.189L19.0973 12.6944C18.8518 12.4151 18.4977 12.255 18.1251 12.255H15.5231C14.3311 12.255 13.3645 11.2884 13.3645 10.0964V3.00265C13.3645 2.21794 13.7838 1.53061 14.4108 1.15234V10.0964C14.4108 10.7105 14.909 11.2087 15.5231 11.2087H18.1251C18.7979 11.2087 19.4385 11.4976 19.8828 12.003L20.6901 12.9197C20.785 13.0284 20.954 13.0284 21.0506 12.9206L21.8852 11.9886C22.3287 11.492 22.9637 11.2087 23.6301 11.2087H28.0534Z" fill="#E8E8E8"/>
<path d="M20.6682 4.37051C20.7783 4.47417 20.9509 4.47112 21.0615 4.3681C21.4555 4.00077 21.9891 3.77566 22.5725 3.77735C23.7692 3.78089 24.7458 4.76351 24.7288 5.9446C24.7053 7.57937 22.8779 8.96681 21.7443 9.67128C21.4145 9.87627 21.168 9.93244 21.0171 10.0111C20.9357 10.0536 20.8388 10.0546 20.7563 10.0139C20.0754 9.67796 17.1029 8.24407 17.1467 6.06854C17.1656 5.13462 17.6546 4.17776 18.5166 3.88697C18.7225 3.81751 18.9411 3.77896 19.1672 3.77743C19.7508 3.77317 20.2779 4.00262 20.6682 4.37051Z" fill="#DF646E"/>
<path d="M21.7442 9.67217C21.4142 9.8774 21.143 10.0247 20.9924 10.1028C20.9112 10.1454 20.8138 10.1462 20.7317 10.106C20.0508 9.76956 16.9538 8.12127 16.9973 5.94581C17.0158 5.01141 17.654 4.17841 18.5168 3.88867C18.1345 4.28223 17.8939 4.81342 17.8826 5.38243C17.8456 7.24239 20.5369 8.9929 21.7442 9.67217Z" fill="#DC4955"/>
<path d="M22.9412 29.0449H18.7517L18.9498 31.8382L18.7517 33.3149L18.7524 33.3157C18.9413 33.5339 19.0734 33.7918 19.3093 33.9479C20.206 34.5411 21.4552 34.5932 22.3403 34.0609C22.5837 33.9145 22.7423 33.5442 22.9399 33.3164L22.9412 33.3149V31.5406L22.7718 31.2628L22.9412 29.0449Z" fill="#E3A76F"/>
<path d="M27.3151 35.1174L25.1237 34.2144L22.941 33.5508C21.8359 34.8264 19.8565 34.9414 18.7519 33.6655L14.5389 35.1174C13.6335 35.4904 13.0427 36.3729 13.0427 37.3521L13.1232 40.682L13.9277 40.843H19.2154L20.927 40.4552L22.4436 40.8431H28.8113V37.3521C28.8113 36.3729 28.2204 35.4905 27.3151 35.1174Z" fill="#CCF49F"/>
<path d="M19.798 29.0449H18.7517V31.5407V33.3153C18.8831 33.4671 18.824 33.7227 18.9771 33.8383C19.1514 33.97 19.5407 33.9565 19.7352 34.0413H19.736L19.7353 32.0549C19.7353 31.9512 19.8318 31.8745 19.9328 31.8981C20.2238 31.966 20.5504 32.0374 20.8459 32.0374C21.6121 32.0374 22.3131 31.8587 22.9408 31.5408V29.045H19.798V29.0449Z" fill="#D6995C"/>
<path d="M19.6435 34.0427L17.2206 35.0792L14.777 36.0862C14.2611 36.2987 13.9279 36.7961 13.9279 37.353V40.8443H12.8816V37.353C12.8816 36.3743 13.4723 35.4914 14.3778 35.1188L16.5581 34.2206L17.5527 33.9134L18.7086 33.3945C18.9894 33.7189 19.2781 33.8834 19.6435 34.0427Z" fill="#B3E59F"/>
<path d="M25.1237 34.2152C25.0714 34.2764 25.036 34.3166 25.0328 34.3206C23.5093 36.1355 22.6022 38.389 22.4437 40.7544V40.8438H19.2155V40.7858C19.0875 38.7292 18.3937 36.7556 17.2205 35.0787C17.0214 34.794 16.8989 34.5447 16.6726 34.2781L16.6484 34.2467L18.7518 33.3991C19.0329 33.7238 19.3706 33.8829 19.7361 34.0423C20.8069 34.5093 22.1164 34.2674 22.9402 33.317L22.941 33.3162L25.1237 34.2152Z" fill="#F8F7F7"/>
<path d="M19.7354 34.0421L17.2203 35.0788C17.0215 34.7939 16.8083 34.5178 16.5821 34.2514L16.558 34.22L18.7519 33.3162C18.9451 33.5391 19.1648 33.7234 19.4022 33.8683C19.4239 33.882 19.4457 33.8949 19.4674 33.9069C19.5551 33.9576 19.6445 34.0019 19.7354 34.0421Z" fill="#E8E8E8"/>
<path d="M25.4022 24.3182C25.4022 21.2866 23.8775 18.8573 20.8458 18.8573C17.8142 18.8573 16.4396 21.3076 16.4396 24.3393C16.4396 24.8454 16.2083 25.3749 16.299 25.8938C16.7522 28.4838 18.3202 30.9915 20.8458 30.9915C23.5351 30.9915 25.1387 28.1483 25.4667 25.3899C25.5084 25.0388 25.4022 24.6606 25.4022 24.3182Z" fill="#E3A76F"/>
<path d="M25.5294 24.3466C25.5294 22.1298 24.6451 20.2212 22.985 19.3547C22.9324 19.4206 22.8244 19.3791 22.8425 19.2828C22.2645 19.0092 21.5978 18.8574 20.8458 18.8574C17.8142 18.8574 16.1622 21.315 16.1622 24.3466C16.1622 24.8527 16.2085 25.3749 16.2993 25.8938C16.3697 25.8004 16.4662 25.732 16.5581 25.6456C17.3512 24.8994 18.489 24.8727 18.6102 24.0923C18.6254 23.9948 18.7176 23.9312 18.8127 23.9576C19.7148 24.2079 21.1795 23.6364 21.6694 22.6445C21.7166 22.5488 21.8406 22.5265 21.9208 22.5968C22.3789 22.9985 22.9821 22.9881 23.244 22.9605C23.319 22.9526 23.3896 22.9971 23.414 23.0684C23.8695 24.3997 25.1182 23.9113 25.4663 25.39C25.5082 25.0388 25.5294 24.689 25.5294 24.3466Z" fill="#D6995C"/>
<path d="M25.9439 20.2242C25.9017 20.212 25.8228 20.1971 25.7574 20.1856C25.7059 20.1766 25.6756 20.1213 25.6979 20.0739C25.8211 19.8125 25.8794 19.5146 25.8514 19.2006C25.7794 18.3943 25.1263 17.742 24.3198 17.6717C23.7957 17.626 23.316 17.8199 22.9777 18.1558C22.9316 18.2015 22.8545 18.1787 22.842 18.1151C22.6579 17.1707 21.8265 16.4578 20.8282 16.4578C20.3399 16.4578 19.8918 16.6287 19.5394 16.9135C19.5044 16.9418 19.4546 16.9367 19.4257 16.9023C19.1159 16.5328 18.652 16.2969 18.132 16.2969C17.2755 16.2969 16.5684 16.9341 16.4576 17.7603C16.4524 17.7992 16.4211 17.8285 16.3819 17.8308C16.193 17.8417 16.0097 17.8743 15.8348 17.9261C14.8363 18.222 14.2166 19.1897 14.2166 20.2842C14.2166 20.9055 14.4475 21.377 14.8331 21.8049C14.8472 21.8206 14.8545 21.8405 14.8533 21.8616C14.8429 22.0254 14.7969 22.7922 14.929 23.4967C15.1704 24.7844 16.1621 25.1389 16.1621 25.1389C16.1621 24.7593 16.346 24.614 16.558 24.4388C17.0502 24.0319 17.9 23.9585 18.1143 23.2083C18.1255 23.1692 18.1629 23.1437 18.2029 23.1507C18.3324 23.1734 18.6098 23.2184 18.7759 23.2184C20.01 23.2184 21.0632 22.4466 21.4808 21.3596C21.5023 21.3036 21.5766 21.2937 21.6138 21.3408C21.9749 21.7981 22.5343 22.0917 23.1622 22.0917C23.3473 22.0917 23.5263 22.0659 23.6961 22.0182C23.7377 22.0065 23.7807 22.03 23.7934 22.0712C24.2874 23.6848 25.5232 23.1642 25.5232 24.6702C26.3326 24.3047 26.8165 23.0552 27.0472 22.2248C27.2893 21.3532 26.7817 20.4663 25.9439 20.2242Z" fill="#855B51"/>
<path d="M16.5581 24.4377C16.3464 24.6131 16.2084 24.8575 16.2084 25.2373C16.2084 25.2373 15.0739 24.8272 14.8325 23.5395C14.7005 22.8352 14.7383 22.0755 14.7488 21.9113C14.7504 21.8904 14.7424 21.8702 14.7287 21.855C14.3432 21.4268 14.1082 20.861 14.1082 20.2397C14.1082 19.1451 14.8365 18.2212 15.8353 17.9258C15.3194 18.3684 14.9935 19.0244 14.9935 19.7568C14.9935 20.3781 15.2285 20.9439 15.614 21.3721C15.6277 21.3874 15.6357 21.4075 15.6341 21.4284C15.6236 21.5926 15.5858 22.3523 15.7178 23.0566C15.8474 23.7463 16.2305 24.1817 16.5581 24.4377Z" fill="#724D44"/>
</g>
<defs>
<clipPath id="clip0_151_2455">
<rect width="40" height="40" fill="white" transform="translate(0.828369 0.84375)"/>
</clipPath>
</defs>
</svg>
