<svg width="41" height="41" viewBox="0 0 41 41" fill="none" xmlns="http://www.w3.org/2000/svg">
<g clip-path="url(#clip0_669_3091)">
<path d="M4.52905 37.2022L7.40233 37.9053L10.2755 37.2022V35.7931L7.40233 35.09L4.52905 35.7931V37.2022Z" fill="#F9CF58"/>
<path d="M13.3652 37.2022L16.2385 37.9053L19.1118 37.2022V35.7931L16.2385 35.09L13.3652 35.7931V37.2022Z" fill="#FFAC3E"/>
<path d="M22.2014 37.2022L25.0747 37.9053L27.948 37.2022V35.7931L25.0747 35.09L22.2014 35.7931V37.2022Z" fill="#82D361"/>
<path d="M31.0376 37.2022L33.9109 37.9053L36.7842 37.2022V35.7931L33.9109 35.09L31.0376 35.7931V37.2022Z" fill="#6CC4FF"/>
<path d="M10.2755 35.7931H4.52905V30.1082C4.52905 29.6758 4.87952 29.3254 5.31187 29.3254H9.49288C9.92522 29.3254 10.2757 29.6758 10.2757 30.1082V35.7931H10.2755Z" fill="#FFE27A"/>
<path d="M19.1118 35.7931H13.3652V25.8357C13.3652 25.4033 13.7157 25.0529 14.148 25.0529H18.329C18.7613 25.0529 19.1118 25.4033 19.1118 25.8357V35.7931Z" fill="#FFBA57"/>
<path d="M27.948 35.7931H22.2014V21.5631C22.2014 21.1308 22.5519 20.7803 22.9842 20.7803H27.1652C27.5976 20.7803 27.9481 21.1308 27.9481 21.5631V35.7931H27.948Z" fill="#98DB7C"/>
<path d="M36.7842 35.7931H31.0376V17.2906C31.0376 16.8582 31.3881 16.5078 31.8204 16.5078H36.0014C36.4338 16.5078 36.7842 16.8582 36.7842 17.2906L36.7842 35.7931Z" fill="#8BCAFF"/>
<path d="M33.6219 9.53281L32.9323 2.66366C32.9083 2.42468 32.6767 2.26343 32.4442 2.32398L25.7585 4.06523C25.4349 4.14952 25.3592 4.57445 25.6338 4.76531L27.3803 5.9796C27.3803 5.9796 22.9011 14.7147 6.71753 19.7091V20.1456C11.1579 20.1699 22.7655 18.9 30.0456 9.11726L31.2617 8.67835L33.009 9.8932C33.2834 10.084 33.6553 9.86531 33.6219 9.53281Z" fill="#FF4755"/>
<path d="M30.5607 8.18321C30.3864 8.06017 30.1468 8.10001 30.0196 8.2711C22.7395 18.0538 13.3997 19.2858 6.98238 19.7316C6.88785 19.7381 6.80136 19.7287 6.72246 19.7076L6.71675 19.7094C5.88902 19.9705 6.12089 21.2006 6.98675 21.1403C13.4716 20.6892 24.1761 18.3733 31.2617 8.67845L30.5607 8.18321Z" fill="#FC2B3A"/>
<path d="M40.0696 38.3763H1.24385C0.919629 38.3763 0.656738 38.1134 0.656738 37.7892C0.656738 37.465 0.919551 37.2021 1.24385 37.2021H40.0697C40.3939 37.2021 40.6568 37.465 40.6568 37.7892C40.6567 38.1134 40.3938 38.3763 40.0696 38.3763Z" fill="#407093"/>
</g>
<defs>
<clipPath id="clip0_669_3091">
<rect width="40" height="40" fill="white" transform="translate(0.656738 0.34375)"/>
</clipPath>
</defs>
</svg>
