<svg width="40" height="41" viewBox="0 0 40 41" fill="none" xmlns="http://www.w3.org/2000/svg">
<path d="M26 16.9804C24.4209 15.9708 23.2117 14.4764 22.5537 12.7215C21.8956 10.9666 21.8242 9.0456 22.3502 7.24666C22.8761 5.44773 23.9711 3.86777 25.4709 2.7437C26.9706 1.61964 28.7944 1.01205 30.6686 1.01205C32.5429 1.01205 34.3666 1.61964 35.8664 2.7437C37.3661 3.86777 38.4611 5.44773 38.987 7.24666C39.513 9.0456 39.4416 10.9666 38.7836 12.7215C38.1256 14.4764 36.9163 15.9708 35.3373 16.9804H26Z" fill="#E8EDEF"/>
<path d="M35.3333 16.9771C33.9404 17.8695 32.3209 18.3438 30.6667 18.3438C29.0124 18.3438 27.3929 17.8695 26 16.9771C26.0078 16.2134 26.2776 15.4756 26.7642 14.8871C27.2508 14.2985 27.9248 13.8949 28.6733 13.7437H32.6533C33.4035 13.8928 34.0795 14.2956 34.5676 14.8844C35.0557 15.4733 35.3261 16.2123 35.3333 16.9771Z" fill="#27A2DC"/>
<path d="M25.7132 29.3371L23.6132 31.4371L21.3332 31.0104L20.4666 28.2904L22.5666 26.1838C22.7522 25.9981 23.004 25.8938 23.2666 25.8938C23.5291 25.8938 23.7809 25.9981 23.9666 26.1838L25.7132 27.9371C25.8964 28.124 25.9991 28.3753 25.9991 28.6371C25.9991 28.8988 25.8964 29.1502 25.7132 29.3371Z" fill="#D5DEE2"/>
<path d="M14.1868 17.7837L12.0868 19.8837L9.33344 19.0104L8.94678 16.7304L11.0401 14.6304C11.227 14.4472 11.4784 14.3445 11.7401 14.3445C12.0019 14.3445 12.2532 14.4472 12.4401 14.6304L14.1868 16.3837C14.3724 16.5694 14.4767 16.8212 14.4767 17.0837C14.4767 17.3463 14.3724 17.5981 14.1868 17.7837Z" fill="#D5DEE2"/>
<path d="M23.6134 31.4371L18.5534 36.5171C17.6034 37.51 16.4658 38.3046 15.2065 38.8548C13.9472 39.4051 12.5913 39.7 11.2172 39.7225C9.84315 39.745 8.47829 39.4946 7.20166 38.9859C5.92503 38.4772 4.76202 37.7203 3.77997 36.759C2.79793 35.7977 2.01638 34.6511 1.48058 33.3856C0.944779 32.1201 0.665384 30.7609 0.658575 29.3867C0.651766 28.0124 0.917678 26.6505 1.44091 25.3798C1.96414 24.109 2.7343 22.9547 3.70677 21.9837L8.94677 16.7304L12.0868 19.8837L6.96677 25.0171C5.89943 26.068 5.25802 27.4763 5.16573 28.9713C5.07345 30.4664 5.53679 31.9428 6.46676 33.1171C6.99183 33.7558 7.64486 34.2774 8.38377 34.6484C9.12268 35.0194 9.9311 35.2315 10.757 35.271C11.5828 35.3106 12.4078 35.1767 13.1788 34.8781C13.9498 34.5795 14.6497 34.1226 15.2334 33.5371L20.4668 28.2904L23.6134 31.4371Z" fill="#DD5252"/>
<path d="M19.2666 8.07708L17.7332 9.62508C17.6966 9.66208 17.6734 9.71023 17.6673 9.76191C17.6611 9.81359 17.6724 9.86584 17.6992 9.91041L18.5859 11.3897C18.6079 11.4264 18.6213 11.4676 18.6249 11.5102C18.6286 11.5528 18.6225 11.5957 18.607 11.6356C18.5916 11.6754 18.5673 11.7113 18.5359 11.7403C18.5045 11.7693 18.4669 11.7908 18.4259 11.8031L14.3532 12.9644C14.2945 12.9802 14.2322 12.9762 14.1759 12.953C14.1197 12.9298 14.0727 12.8886 14.0423 12.8359C14.0119 12.7832 13.9998 12.7219 14.0078 12.6616C14.0158 12.6013 14.0435 12.5453 14.0866 12.5024L15.6612 10.9217L14.6812 9.28641C14.6592 9.24985 14.6458 9.20873 14.6421 9.16621C14.6384 9.12369 14.6445 9.08088 14.6599 9.04107C14.6752 9.00125 14.6995 8.96547 14.7308 8.93647C14.7622 8.90747 14.7997 8.88601 14.8406 8.87374L19.0366 7.68641C19.0864 7.67261 19.1393 7.67563 19.1872 7.69499C19.2351 7.71436 19.2752 7.74898 19.3015 7.7935C19.3277 7.83801 19.3385 7.88994 19.3321 7.94121C19.3258 7.99248 19.3028 8.04024 19.2666 8.07708Z" fill="#F5BF32"/>
<path d="M32.6154 21.4277L31.0861 22.9757C31.0495 23.0128 31.0263 23.0609 31.0201 23.1126C31.014 23.1643 31.0252 23.2165 31.0521 23.2611L31.9387 24.7404C31.9607 24.7771 31.9741 24.8183 31.9778 24.8609C31.9814 24.9035 31.9753 24.9464 31.9599 24.9862C31.9444 25.0261 31.9201 25.0619 31.8887 25.091C31.8573 25.12 31.8197 25.1415 31.7787 25.1537L27.7041 26.3151C27.6453 26.3309 27.583 26.3269 27.5268 26.3037C27.4705 26.2804 27.4236 26.2393 27.3932 26.1866C27.3628 26.1339 27.3506 26.0726 27.3586 26.0123C27.3666 25.952 27.3943 25.896 27.4374 25.8531L29.0121 24.2724L28.0321 22.6371C28.0099 22.6006 27.9964 22.5594 27.9926 22.5169C27.9889 22.4743 27.9949 22.4314 28.0103 22.3916C28.0257 22.3517 28.05 22.3159 28.0814 22.2869C28.1128 22.258 28.1504 22.2366 28.1914 22.2244L32.3874 21.0371C32.437 21.024 32.4896 21.0275 32.537 21.0471C32.5845 21.0667 32.6241 21.1013 32.65 21.1457C32.6759 21.19 32.6865 21.2416 32.6803 21.2926C32.674 21.3435 32.6512 21.391 32.6154 21.4277Z" fill="#F5BF32"/>
<path d="M34.6667 10.6771V8.34375C34.6667 7.28288 34.2453 6.26547 33.4952 5.51532C32.745 4.76518 31.7276 4.34375 30.6667 4.34375C29.6059 4.34375 28.5885 4.76518 27.8383 5.51532C27.0882 6.26547 26.6667 7.28288 26.6667 8.34375V10.6771H34.6667Z" fill="#242C4C"/>
<path d="M33.6667 11.6771C33.932 11.6771 34.1863 11.5717 34.3739 11.3842C34.5614 11.1967 34.6667 10.9423 34.6667 10.6771C34.6667 10.4119 34.5614 10.1575 34.3739 9.96999C34.1863 9.78245 33.932 9.67709 33.6667 9.67709C33.6331 9.39454 33.5011 9.13284 33.2939 8.93782C33.0867 8.7428 32.8175 8.6269 32.5334 8.61043C31.8131 8.55527 31.1431 8.22024 30.6667 7.67709C30.1904 8.22024 29.5204 8.55527 28.8001 8.61043C28.516 8.6269 28.2468 8.7428 28.0396 8.93782C27.8324 9.13284 27.7004 9.39454 27.6667 9.67709C27.4015 9.67709 27.1472 9.78245 26.9596 9.96999C26.7721 10.1575 26.6667 10.4119 26.6667 10.6771C26.6667 10.9423 26.7721 11.1967 26.9596 11.3842C27.1472 11.5717 27.4015 11.6771 27.6667 11.6771C27.6748 12.0538 27.7606 12.4247 27.9186 12.7667C28.0766 13.1088 28.3035 13.4145 28.5851 13.6648C28.8667 13.9151 29.1969 14.1046 29.5551 14.2214C29.9133 14.3383 30.2917 14.3799 30.6667 14.3438C31.0407 14.3747 31.4171 14.3293 31.773 14.2106C32.129 14.0918 32.4572 13.902 32.7376 13.6527C33.0181 13.4034 33.2451 13.0997 33.4048 12.7601C33.5645 12.4206 33.6536 12.0521 33.6667 11.6771Z" fill="#FFBA9C"/>
</svg>
