<svg width="41" height="41" viewBox="0 0 41 41" fill="none" xmlns="http://www.w3.org/2000/svg">
<g clip-path="url(#clip0_151_2266)">
<path d="M20.1716 40.8438C31.2173 40.8438 40.1716 31.8894 40.1716 20.8438C40.1716 9.79805 31.2173 0.84375 20.1716 0.84375C9.12594 0.84375 0.171631 9.79805 0.171631 20.8438C0.171631 31.8894 9.12594 40.8438 20.1716 40.8438Z" fill="#E5AA17"/>
<path fill-rule="evenodd" clip-rule="evenodd" d="M15.0923 21.2935H8.17202C7.67014 21.2935 7.26303 20.8864 7.26303 20.3845C7.26303 19.8825 7.67014 19.4754 8.17202 19.4754H15.0923L14.0915 18.4744C13.7365 18.1194 13.7366 17.5438 14.0915 17.1888C14.4463 16.8336 15.0219 16.8338 15.3769 17.1888L17.9298 19.7416C18.2848 20.0966 18.2848 20.6723 17.9298 21.0273L15.3769 23.5802C15.2061 23.751 14.976 23.8466 14.7344 23.8466C14.4924 23.8466 14.2626 23.7513 14.0915 23.5802C13.7368 23.2252 13.7367 22.6495 14.0915 22.2945L15.0923 21.2935ZM18.7916 31.0578V32.3231C18.7916 33.3377 19.297 34.2138 20.1757 34.7212C20.5988 34.9655 21.0705 35.1016 21.5602 35.1016C22.0499 35.1016 22.5215 34.9655 22.9448 34.7212L28.5711 31.4728C29.4499 30.9655 29.9551 30.0897 29.9551 29.075V12.48C29.9551 10.9531 28.7136 9.71094 27.1865 9.71094H14.7952C13.2682 9.71094 12.026 10.953 12.026 12.48V15.9783C12.026 16.4803 12.433 16.8873 12.9351 16.8873C13.4372 16.8873 13.8444 16.4805 13.8444 15.9783V12.48C13.8444 11.9555 14.2709 11.5293 14.7953 11.5293H25.6533L20.1762 14.6918C19.2975 15.1992 18.7917 16.0751 18.7917 17.0898V29.2395H14.7953C14.271 29.2395 13.8444 28.8134 13.8444 28.289V25.222C13.8444 24.7198 13.4373 24.313 12.9351 24.313C12.433 24.313 12.026 24.7199 12.026 25.222V28.289C12.026 29.8161 13.2683 31.0578 14.7952 31.0578H18.7916Z" fill="white"/>
</g>
<defs>
<clipPath id="clip0_151_2266">
<rect width="40" height="40" fill="white" transform="translate(0.171631 0.84375)"/>
</clipPath>
</defs>
</svg>
