<svg width="40" height="41" viewBox="0 0 40 41" fill="none" xmlns="http://www.w3.org/2000/svg">
<path d="M20.4341 30.85C19.8517 30.8489 19.2931 30.6187 18.8791 30.2091L17.5491 28.8822C17.3537 28.6873 17.1106 28.5472 16.8441 28.4759L15.0291 27.9919C14.6567 27.8919 14.3172 27.696 14.0442 27.4238C13.7713 27.1515 13.5746 26.8124 13.4738 26.4403L12.9853 24.6278C12.9135 24.3613 12.7729 24.1184 12.5775 23.9234L11.2475 22.5966C10.975 22.3238 10.7788 21.9844 10.6785 21.6121C10.5783 21.2398 10.5775 20.8477 10.6763 20.475L11.1603 18.66C11.2314 18.3938 11.2314 18.1137 11.1603 17.8475L10.671 16.0312C10.5712 15.6588 10.5709 15.2667 10.6703 14.8941C10.7696 14.5215 10.965 14.1815 11.2369 13.9081L12.5625 12.5784C12.7575 12.3832 12.8976 12.14 12.9688 11.8734L13.4528 10.0581C13.5526 9.68573 13.7485 9.34608 14.0208 9.07314C14.2931 8.80019 14.6322 8.60353 15.0044 8.50281L16.8169 8.01437C17.0834 7.94252 17.3263 7.80188 17.5213 7.60656L18.8481 6.27656C19.2623 5.86459 19.8224 5.63289 20.4066 5.63187C20.5965 5.63196 20.7856 5.65675 20.9691 5.70562L22.7844 6.18968C23.051 6.26137 23.3318 6.26137 23.5985 6.18968L25.411 5.70156C25.596 5.65175 25.7868 5.62654 25.9785 5.62656C26.5608 5.62785 27.1193 5.85805 27.5335 6.26749L28.8672 7.59374C29.0627 7.78844 29.3057 7.92852 29.5722 7.99999L31.3878 8.48406C31.7601 8.58402 32.0997 8.77992 32.3726 9.05218C32.6456 9.32444 32.8423 9.66354 32.9431 10.0356L33.4316 11.8497C33.5036 12.1162 33.6443 12.3591 33.8397 12.5541L35.1694 13.8806C35.4419 14.1533 35.6382 14.4928 35.7384 14.8651C35.8386 15.2374 35.8394 15.6295 35.7406 16.0022L35.2566 17.8172C35.1855 18.0834 35.1855 18.3635 35.2566 18.6297L35.7453 20.4437C35.8447 20.8162 35.8448 21.2082 35.7454 21.5807C35.6461 21.9532 35.4508 22.2931 35.1791 22.5666L33.8522 23.8966C33.6572 24.0918 33.5171 24.3349 33.446 24.6016L32.9622 26.4169C32.8622 26.7892 32.6663 27.1289 32.394 27.4018C32.1217 27.6747 31.7825 27.8714 31.4103 27.9722L29.5978 28.4606C29.3314 28.5324 29.0886 28.6731 28.8938 28.8684L27.5669 30.1981C27.1527 30.6105 26.5923 30.8426 26.0078 30.8437C25.8179 30.8437 25.6288 30.819 25.4453 30.77L23.63 30.2859C23.3639 30.2147 23.0837 30.2147 22.8175 30.2859L21.0031 30.7744C20.8176 30.8246 20.6263 30.85 20.4341 30.85Z" fill="#F9CC5A"/>
<path d="M11.284 14.8691L12.7084 13.4416C12.9175 13.2319 13.0677 12.9708 13.144 12.6847L13.6637 10.7359C13.7709 10.3362 13.9811 9.97157 14.2734 9.67856C14.5657 9.38555 14.9298 9.17441 15.3293 9.06625L17.2768 8.54187C17.5629 8.46485 17.8237 8.31397 18.0331 8.10437L19.4574 6.67656C19.9021 6.23424 20.5034 5.98546 21.1306 5.98437C21.3346 5.98439 21.5378 6.01097 21.735 6.06344L23.6837 6.58312C23.9703 6.66026 24.2721 6.66026 24.5587 6.58312L26.5059 6.05906C26.7046 6.00566 26.9095 5.97865 27.1153 5.97875C27.1371 5.97875 27.159 5.98156 27.1809 5.98219C26.8239 5.75081 26.4079 5.62683 25.9824 5.625C25.7908 5.62498 25.6 5.6502 25.415 5.7L23.6024 6.18813C23.3358 6.25982 23.055 6.25982 22.7884 6.18813L20.9731 5.70406C20.7896 5.65519 20.6005 5.6304 20.4106 5.63031C19.8264 5.63133 19.2663 5.86304 18.8521 6.275L17.5253 7.605C17.3303 7.80033 17.0874 7.94096 16.8209 8.01281L15.0084 8.50125C14.6362 8.60197 14.2971 8.79864 14.0248 9.07158C13.7525 9.34452 13.5566 9.68417 13.4568 10.0566L12.9687 11.8734C12.8976 12.14 12.7574 12.3832 12.5624 12.5784L11.2356 13.9081C10.9689 14.1768 10.7759 14.5096 10.6754 14.8746C10.5749 15.2396 10.5702 15.6243 10.6618 15.9916C10.7613 15.567 10.9767 15.1784 11.284 14.8691Z" fill="#FEF497"/>
<path d="M35.7458 20.4438L35.2571 18.6297C35.186 18.3635 35.186 18.0834 35.2571 17.8172L35.7411 16.0022C35.8399 15.6295 35.8391 15.2374 35.7389 14.8651C35.6387 14.4928 35.4424 14.1533 35.1699 13.8806L33.8402 12.5541C33.6448 12.3591 33.5041 12.1162 33.4321 11.8497L32.9436 10.0356C32.8569 9.71664 32.6995 9.42123 32.4832 9.17131C32.2668 8.92139 31.9969 8.72336 31.6936 8.59189C31.7589 8.72044 31.8113 8.85516 31.8499 8.99408L32.3383 10.8081C32.4103 11.0746 32.5511 11.3175 32.7464 11.5125L34.0761 12.8391C34.3487 13.1118 34.5449 13.4513 34.6451 13.8236C34.7454 14.1959 34.7462 14.5879 34.6474 14.9606L34.1633 16.7756C34.0923 17.0418 34.0923 17.322 34.1633 17.5881L34.6521 19.4022C34.7515 19.7747 34.7515 20.1667 34.6522 20.5392C34.5528 20.9116 34.3575 21.2516 34.0858 21.525L32.7589 22.855C32.5639 23.0502 32.4238 23.2934 32.3527 23.56L31.8689 25.375C31.769 25.7474 31.573 26.087 31.3007 26.3599C31.0284 26.6329 30.6892 26.8295 30.3171 26.9303L28.5046 27.4188C28.2382 27.4906 27.9953 27.6312 27.8005 27.8266L26.4724 29.1563C26.0583 29.5683 25.4981 29.8001 24.9139 29.8013C24.724 29.8013 24.5349 29.7765 24.3514 29.7275L22.5361 29.2435C22.27 29.1722 21.9898 29.1722 21.7236 29.2435L19.9093 29.7319C19.7241 29.7818 19.5332 29.807 19.3414 29.8069C18.8884 29.8057 18.4465 29.6659 18.0752 29.4063L18.8789 30.2081C19.2929 30.6178 19.8515 30.848 20.4339 30.8491C20.6257 30.8492 20.8166 30.824 21.0018 30.7741L22.8161 30.286C23.0823 30.2147 23.3625 30.2147 23.6286 30.286L25.4439 30.77C25.6274 30.819 25.8165 30.8438 26.0064 30.8438C26.5906 30.8426 27.1508 30.6108 27.5649 30.1988L28.8918 28.8691C29.0866 28.6737 29.3294 28.5331 29.5958 28.4613L31.4083 27.9728C31.7805 27.872 32.1196 27.6754 32.392 27.4024C32.6643 27.1295 32.8602 26.7899 32.9602 26.4175L33.4439 24.6022C33.5151 24.3356 33.6552 24.0924 33.8502 23.8972L35.1771 22.5672C35.4493 22.2939 35.6451 21.954 35.7449 21.5814C35.8447 21.2088 35.845 20.8165 35.7458 20.4438Z" fill="#F8C150"/>
<path d="M23.2086 27.0991C21.442 27.0991 19.7151 26.5753 18.2462 25.5939C16.7773 24.6125 15.6324 23.2176 14.9564 21.5855C14.2803 19.9534 14.1034 18.1575 14.448 16.4249C14.7926 14.6922 15.6432 13.1007 16.8923 11.8515C18.1415 10.6023 19.733 9.75164 21.4656 9.40697C23.1982 9.06231 24.9942 9.23917 26.6263 9.91519C28.2584 10.5912 29.6533 11.736 30.6348 13.2049C31.6163 14.6737 32.1401 16.4006 32.1401 18.1672C32.1375 20.5352 31.1956 22.8055 29.5212 24.48C27.8468 26.1544 25.5766 27.0963 23.2086 27.0991Z" fill="#F15550"/>
<path d="M14.5085 18.8525C14.5076 17.2935 14.9 15.7594 15.6494 14.3923C16.3988 13.0251 17.481 11.8692 18.7958 11.0314C20.1106 10.1935 21.6155 9.70093 23.1712 9.59915C24.727 9.49737 26.2832 9.7897 27.696 10.4491C26.1081 9.52542 24.274 9.11396 22.4437 9.2708C20.6134 9.42764 18.876 10.1451 17.4684 11.3255C16.0608 12.5058 15.0515 14.0916 14.578 15.8665C14.1046 17.6414 14.1901 19.5192 14.8228 21.2438C14.6141 20.4638 14.5084 19.6599 14.5085 18.8525Z" fill="#F77668"/>
<path d="M27.9537 10.6059C29.7165 12.0414 30.8653 14.0954 31.1656 16.3488C31.4659 18.6023 30.8951 20.8855 29.5696 22.7325C28.2442 24.5795 26.2639 25.8512 24.0329 26.2881C21.8019 26.7251 19.4882 26.2943 17.564 25.0837C18.5083 25.8553 19.6006 26.4253 20.7736 26.7584C21.9467 27.0916 23.1755 27.1809 24.3844 27.0208C25.5933 26.8608 26.7566 26.4548 27.8025 25.8278C28.8484 25.2009 29.7548 24.3663 30.4658 23.3756C31.1768 22.3849 31.6772 21.259 31.9363 20.0674C32.1954 18.8758 32.2077 17.6438 31.9723 16.4473C31.7369 15.2508 31.2589 14.1152 30.5677 13.1106C29.8766 12.1059 28.9869 11.2535 27.9537 10.6059Z" fill="#E94443"/>
<path d="M26.4207 18.5081C25.4169 18.5081 24.6304 19.4919 24.6304 20.7478C24.6304 22.0037 25.4169 22.9875 26.4207 22.9875C27.4244 22.9875 28.211 22.0037 28.211 20.7478C28.211 19.4919 27.4244 18.5081 26.4207 18.5081ZM26.4207 21.7375C26.1707 21.7375 25.8804 21.3053 25.8804 20.7478C25.8804 20.1903 26.1707 19.7581 26.4207 19.7581C26.6707 19.7581 26.961 20.1903 26.961 20.7478C26.961 21.3053 26.6707 21.7375 26.4207 21.7375Z" fill="#FEF497"/>
<path d="M21.7859 15.5781C21.7859 14.3222 20.9993 13.3384 19.9956 13.3384C18.9918 13.3384 18.2056 14.3222 18.2056 15.5781C18.2056 16.8341 18.9918 17.8178 19.9956 17.8178C20.9993 17.8178 21.7859 16.8341 21.7859 15.5781ZM19.9956 16.5678C19.7456 16.5678 19.4556 16.1356 19.4556 15.5781C19.4556 15.0206 19.7459 14.5884 19.9956 14.5884C20.2453 14.5884 20.5359 15.0206 20.5359 15.5781C20.5359 16.1356 20.2456 16.5678 19.9956 16.5678Z" fill="#FEF497"/>
<path d="M26.1207 14.3094C25.9886 14.2095 25.8222 14.1661 25.6582 14.1888C25.4941 14.2115 25.3457 14.2983 25.2457 14.4303L20.3626 20.875C20.2627 21.0071 20.2193 21.1735 20.242 21.3375C20.2646 21.5016 20.3515 21.6499 20.4835 21.75C20.6163 21.8479 20.7821 21.89 20.9456 21.8674C21.109 21.8449 21.2572 21.7593 21.3585 21.6291L26.2416 15.185C26.2912 15.1196 26.3274 15.045 26.3481 14.9656C26.3688 14.8862 26.3737 14.8034 26.3625 14.7221C26.3513 14.6408 26.3241 14.5625 26.2827 14.4917C26.2412 14.4209 26.1861 14.3589 26.1207 14.3094Z" fill="#FEF497"/>
<path d="M36.0659 26.8437C35.8849 26.5617 35.6364 26.3294 35.3428 26.1677C35.0493 26.006 34.7201 25.9201 34.385 25.9178C33.3991 25.9178 32.3022 26.5566 31.405 26.9147C29.03 27.8634 26.34 28.9384 23.8153 28.9806C22.9481 28.9947 21.7037 29.1334 20.9259 28.6466L20.4384 28.3416L20.9594 28.0984C24.1903 26.5897 24.7406 25.0847 24.7819 24.3219C24.798 23.9673 24.712 23.6155 24.5341 23.3084C24.3563 23.0012 24.094 22.7516 23.7784 22.5891C22.4841 21.8703 20.6072 22.8891 19.4494 23.4691C18.9751 23.7015 18.4684 23.861 17.9466 23.9422C15.3416 24.37 13.7191 25.7459 12.4037 26.8616C11.6775 27.4772 10.9509 28.0644 10.0212 28.3381C10.0212 28.3381 10.0212 34.3747 10.0287 34.3759L11.8506 34.3287C13.1084 34.2975 14.3622 34.5634 15.6087 34.6978C17.8675 34.9412 20.1553 35.3066 22.4309 35.3066C24.476 35.3046 26.4912 34.8155 28.3097 33.8797C33.5722 31.1644 35.3275 29.8853 35.8722 29.2906C36.1763 28.9647 36.361 28.5454 36.3962 28.101C36.4314 27.6566 36.315 27.2135 36.0659 26.8437Z" fill="#FDDDB6"/>
<path d="M20.9593 28.0981C24.1902 26.5894 24.7405 25.0844 24.7818 24.3215C24.7934 23.9062 24.669 23.4984 24.4275 23.1603C24.186 22.8221 23.8406 22.5722 23.444 22.4484C24.4396 24.1984 24.2565 25.8619 19.824 28.1047L20.4443 28.339L20.9593 28.0981Z" fill="#FDCBA0"/>
<path d="M36.0831 26.875C36.0963 27.137 36.0569 27.399 35.9673 27.6456C35.8777 27.8921 35.7396 28.1182 35.5613 28.3106C35.0153 28.9044 33.26 30.1856 27.9988 32.8997C26.1803 33.8355 24.1651 34.3246 22.12 34.3266C19.8441 34.3266 17.5575 33.9612 15.2978 33.7178C14.0513 33.5834 12.7978 33.3162 11.5397 33.3487L10.0256 33.3881C10.0256 33.9778 10.0281 34.3756 10.03 34.3759L11.8519 34.3287C13.11 34.2975 14.3634 34.5634 15.61 34.6978C17.8688 34.9412 20.1566 35.3066 22.4322 35.3066C24.4773 35.3046 26.4925 34.8155 28.3109 33.8797C33.5734 31.1644 35.3288 29.8853 35.8734 29.2906C36.1729 28.9691 36.3563 28.5567 36.3943 28.1189C36.4323 27.6812 36.3228 27.2433 36.0831 26.875Z" fill="#FDCBA0"/>
<path d="M10.0216 26.6812H3.90625C3.73366 26.6812 3.59375 26.8212 3.59375 26.9937V35.1144C3.59375 35.287 3.73366 35.4269 3.90625 35.4269H10.0216C10.1942 35.4269 10.3341 35.287 10.3341 35.1144V26.9937C10.3341 26.8212 10.1942 26.6812 10.0216 26.6812Z" fill="#4DB3CA"/>
<path d="M10.0216 26.6812H9.68313V34.0562C9.68313 34.1391 9.6502 34.2186 9.5916 34.2772C9.53299 34.3358 9.45351 34.3687 9.37063 34.3687H3.59375V35.1144C3.59375 35.1972 3.62667 35.2767 3.68528 35.3353C3.74388 35.3939 3.82337 35.4269 3.90625 35.4269H10.0216C10.1044 35.4269 10.1839 35.3939 10.2425 35.3353C10.3011 35.2767 10.3341 35.1972 10.3341 35.1144V26.9937C10.3341 26.9109 10.3011 26.8314 10.2425 26.7728C10.1839 26.7142 10.1044 26.6812 10.0216 26.6812Z" fill="#4DABCA"/>
</svg>
