<svg width="41" height="40" viewBox="0 0 41 40" fill="none" xmlns="http://www.w3.org/2000/svg">
<g clip-path="url(#clip0_669_2138)">
<path fill-rule="evenodd" clip-rule="evenodd" d="M20.8284 36.7266C16.3604 36.7266 12.1604 34.9867 9.00103 31.8273C5.84165 28.668 4.10181 24.468 4.10181 20C4.10181 15.532 5.84165 11.332 9.00103 8.17266C12.1604 5.01328 16.3604 3.27344 20.8284 3.27344C25.2963 3.27344 29.4963 5.01328 32.6557 8.17266C35.8151 11.332 37.5549 15.532 37.5549 20C37.5549 24.468 35.8151 28.668 32.6557 31.8273C29.4963 34.9867 25.2963 36.7266 20.8284 36.7266Z" fill="#EDEDED"/>
<path fill-rule="evenodd" clip-rule="evenodd" d="M24.3048 34.2211C23.815 34.2211 23.3564 34.0313 23.0126 33.6875L7.14077 17.8156C6.79702 17.4719 6.60718 17.0125 6.60718 16.5235C6.60718 16.0344 6.79702 15.5758 7.14077 15.2321L16.0603 6.31252C16.4041 5.96877 16.8634 5.77893 17.3517 5.77893C17.8408 5.77893 18.3001 5.96877 18.6439 6.31252L34.5158 22.1844C35.2283 22.8969 35.2283 24.0555 34.5158 24.768L25.5962 33.6875C25.2525 34.0313 24.7939 34.2211 24.3048 34.2211Z" fill="#42C7F4"/>
<path fill-rule="evenodd" clip-rule="evenodd" d="M12.7556 9.61719L15.5681 6.80469L34.0236 25.2602L31.2111 28.0719L12.7556 9.61719Z" fill="#454945"/>
<path fill-rule="evenodd" clip-rule="evenodd" d="M13.012 19.325C12.5002 19.325 12.0206 19.1274 11.6604 18.7672L10.6963 17.8031C9.95181 17.0586 9.95181 15.8461 10.6963 15.1016L11.9963 13.8016C12.3557 13.4422 12.8354 13.2438 13.3471 13.2438C13.8588 13.2438 14.3385 13.4422 14.6987 13.8016L15.662 14.7656C16.4073 15.511 16.4073 16.7235 15.6627 17.468L14.3627 18.7672C14.0034 19.1274 13.5237 19.325 13.012 19.325ZM13.3471 14.1813C13.0862 14.1813 12.8417 14.2813 12.6588 14.4641L11.3596 15.7641C10.9799 16.1438 10.9799 16.761 11.3596 17.1406L12.3237 18.1047C12.5065 18.2875 12.751 18.3883 13.012 18.3883C13.2729 18.3883 13.5174 18.2875 13.7002 18.1047L15.0002 16.8055C15.3799 16.4258 15.3792 15.8078 14.9995 15.4281L14.0354 14.4641C13.8534 14.2813 13.6088 14.1813 13.3471 14.1813Z" fill="#E6E6E6"/>
<path fill-rule="evenodd" clip-rule="evenodd" d="M11.0283 17.9406C10.908 17.9406 10.7884 17.8953 10.697 17.8032C10.5134 17.6203 10.5134 17.3242 10.697 17.1406L14.0361 13.8024C14.2189 13.6188 14.515 13.6188 14.6986 13.8024C14.8814 13.9852 14.8814 14.2813 14.6986 14.4641L11.3595 17.8032C11.2681 17.8953 11.1478 17.9406 11.0283 17.9406Z" fill="#E6E6E6"/>
<path fill-rule="evenodd" clip-rule="evenodd" d="M14.0738 18.8625C13.9542 18.8625 13.8339 18.8172 13.7425 18.7258L11.7589 16.7414C11.5761 16.5586 11.5761 16.2617 11.7589 16.0789L12.9738 14.8633C13.1574 14.6805 13.4535 14.6805 13.6363 14.8633L15.6207 16.8477C15.7082 16.9352 15.7574 17.0547 15.7574 17.1789C15.7574 17.3031 15.7082 17.4227 15.6207 17.5102L14.405 18.7258C14.3136 18.8172 14.1941 18.8625 14.0738 18.8625ZM12.7527 16.4102L14.0738 17.7321L14.6269 17.1789L13.305 15.8578L12.7527 16.4102Z" fill="#E6E6E6"/>
<path fill-rule="evenodd" clip-rule="evenodd" d="M18.7253 22.2993C18.6058 22.2993 18.4863 22.2532 18.3941 22.1618L17.091 20.8586C16.9082 20.6758 16.9082 20.3789 17.091 20.1961C17.2738 20.0133 17.5707 20.0133 17.7535 20.1961L19.0566 21.4993C19.2394 21.6821 19.2394 21.9789 19.0566 22.1618C18.9652 22.2532 18.8457 22.2993 18.7253 22.2993Z" fill="#E6E6E6"/>
<path fill-rule="evenodd" clip-rule="evenodd" d="M21.1658 24.7391C21.0455 24.7391 20.926 24.6938 20.8346 24.6016L19.5307 23.2985C19.3479 23.1156 19.3479 22.8188 19.5307 22.6359C19.7135 22.4531 20.0104 22.4531 20.1932 22.6359L21.4971 23.9399C21.6799 24.1227 21.6799 24.4188 21.4971 24.6024C21.4057 24.6938 21.2854 24.7391 21.1658 24.7391Z" fill="#E6E6E6"/>
<path fill-rule="evenodd" clip-rule="evenodd" d="M23.6058 27.179C23.4854 27.179 23.3659 27.1336 23.2745 27.0422L21.9706 25.7383C21.7878 25.5555 21.7878 25.2586 21.9706 25.0758C22.1534 24.893 22.4503 24.893 22.6331 25.0758L23.937 26.3797C24.1198 26.5625 24.1198 26.8594 23.937 27.0422C23.8456 27.1336 23.7253 27.179 23.6058 27.179Z" fill="#E6E6E6"/>
<path fill-rule="evenodd" clip-rule="evenodd" d="M26.0455 29.6188C25.926 29.6188 25.8057 29.5735 25.7143 29.4821L24.4111 28.1781C24.2275 27.9953 24.2275 27.6985 24.4111 27.5156C24.5939 27.3328 24.89 27.3328 25.0729 27.5156L26.3768 28.8196C26.5596 29.0024 26.5596 29.2992 26.3768 29.4821C26.2854 29.5735 26.1658 29.6188 26.0455 29.6188Z" fill="#E6E6E6"/>
<path fill-rule="evenodd" clip-rule="evenodd" d="M7.80635 33.6461C7.64072 33.6461 7.48213 33.5813 7.36494 33.4633C7.12119 33.2195 7.12119 32.8242 7.36494 32.5805L26.6446 13.2969L33.1642 6.75001C33.4071 6.50626 33.804 6.50626 34.0478 6.75001C34.2915 6.99454 34.2907 7.38907 34.0478 7.63361L26.8313 14.8805C26.8188 14.893 26.8056 14.9047 26.7923 14.9164L8.24854 33.4633C8.13057 33.5813 7.97275 33.6461 7.80635 33.6461Z" fill="#676B66"/>
<path fill-rule="evenodd" clip-rule="evenodd" d="M20.8283 39.9875C15.4893 39.9875 10.4697 37.9086 6.69473 34.1336C2.91973 30.3586 0.84082 25.3391 0.84082 20C0.84082 14.6609 2.91973 9.64141 6.69473 5.86641C10.4697 2.09141 15.4893 0.0117188 20.8283 0.0117188C26.1674 0.0117188 31.1869 2.09141 34.9619 5.86641C38.7369 9.64141 40.8158 14.6609 40.8158 20C40.8158 25.3391 38.7369 30.3586 34.9619 34.1336C31.1869 37.9086 26.1674 39.9875 20.8283 39.9875ZM20.8283 36.7266C16.3604 36.7266 12.1604 34.9867 9.00098 31.8273C5.8416 28.668 4.10176 24.468 4.10176 20C4.10176 15.532 5.8416 11.332 9.00098 8.17266C12.1604 5.01328 16.3604 3.27344 20.8283 3.27344C25.2963 3.27344 29.4963 5.01328 32.6557 8.17266C35.815 11.332 37.5549 15.532 37.5549 20C37.5549 24.468 35.815 28.668 32.6557 31.8273C29.4963 34.9867 25.2963 36.7266 20.8283 36.7266Z" fill="#FF4646"/>
</g>
<defs>
<clipPath id="clip0_669_2138">
<rect width="40" height="40" fill="white" transform="translate(0.828369)"/>
</clipPath>
</defs>
</svg>
