<svg width="41" height="40" viewBox="0 0 41 40" fill="none" xmlns="http://www.w3.org/2000/svg">
<path d="M1.1665 6.00065V36.6673C1.1665 37.3746 1.44746 38.0528 1.94755 38.5529C2.44765 39.053 3.12593 39.334 3.83317 39.334H33.1665C33.8737 39.334 34.552 39.053 35.0521 38.5529C35.5522 38.0528 35.8332 37.3746 35.8332 36.6673V6.00065L35.1665 5.33398H1.83317L1.1665 6.00065Z" fill="#E3F0FF"/>
<path d="M35.8332 3.33268V5.99935H1.1665V3.33268C1.1665 2.62544 1.44746 1.94716 1.94755 1.44706C2.44765 0.946967 3.12593 0.666016 3.83317 0.666016H33.1665C33.8737 0.666016 34.552 0.946967 35.0521 1.44706C35.5522 1.94716 35.8332 2.62544 35.8332 3.33268Z" fill="#1877F2"/>
<path d="M5.16667 16.0007C4.98986 16.0007 4.82029 15.9304 4.69526 15.8054C4.57024 15.6804 4.5 15.5108 4.5 15.334V10.0007C4.5 9.82384 4.57024 9.65427 4.69526 9.52925C4.82029 9.40422 4.98986 9.33398 5.16667 9.33398H31.8333C32.0102 9.33398 32.1797 9.40422 32.3047 9.52925C32.4298 9.65427 32.5 9.82384 32.5 10.0007V16.0007H5.16667Z" fill="#BAD6FB"/>
<path d="M13.1667 29.334H5.16667C4.79848 29.334 4.5 29.6325 4.5 30.0007V35.334C4.5 35.7022 4.79848 36.0007 5.16667 36.0007H13.1667C13.5349 36.0007 13.8333 35.7022 13.8333 35.334V30.0007C13.8333 29.6325 13.5349 29.334 13.1667 29.334Z" fill="#BAD6FB"/>
<path d="M39.4133 16.4734L37.8933 17.9934L35.1667 16.6667L33.84 13.94L35.36 12.42C35.493 12.2869 35.651 12.1813 35.8249 12.1093C35.9988 12.0372 36.1851 12.0001 36.3733 12.0001C36.5615 12.0001 36.7479 12.0372 36.9218 12.1093C37.0956 12.1813 37.2536 12.2869 37.3867 12.42L39.4133 14.4467C39.5465 14.5797 39.6521 14.7377 39.7241 14.9116C39.7962 15.0855 39.8332 15.2718 39.8332 15.46C39.8332 15.6482 39.7962 15.8346 39.7241 16.0085C39.6521 16.1823 39.5465 16.3403 39.4133 16.4734Z" fill="#ED5F54"/>
<path d="M28.2733 27.6139L28.2667 27.6272C27.937 27.9498 27.5311 28.1837 27.0866 28.3072L23.42 29.3005C23.2963 29.3452 23.1624 29.3537 23.034 29.3251C22.9056 29.2964 22.7881 29.2318 22.6951 29.1388C22.6021 29.0458 22.5375 28.9282 22.5088 28.7999C22.4802 28.6715 22.4887 28.5376 22.5333 28.4139L23.5266 24.7472C23.6484 24.3025 23.8853 23.8978 24.2133 23.5739L24.22 23.5605L27.1666 24.6672L28.2733 27.6139Z" fill="#D6A36B"/>
<path d="M35.8667 20.02L28.2733 27.6133L24.22 23.56L31.8133 15.9667L34.5 17.3333L35.8667 20.02Z" fill="#F2C23B"/>
<path d="M5.16683 3.99935H4.50016C4.32335 3.99935 4.15378 3.92911 4.02876 3.80409C3.90373 3.67906 3.8335 3.50949 3.8335 3.33268C3.8335 3.15587 3.90373 2.9863 4.02876 2.86128C4.15378 2.73625 4.32335 2.66602 4.50016 2.66602H5.16683C5.34364 2.66602 5.51321 2.73625 5.63823 2.86128C5.76326 2.9863 5.8335 3.15587 5.8335 3.33268C5.8335 3.50949 5.76326 3.67906 5.63823 3.80409C5.51321 3.92911 5.34364 3.99935 5.16683 3.99935Z" fill="white"/>
<path d="M8.49984 3.99935H7.83317C7.65636 3.99935 7.48679 3.92911 7.36177 3.80409C7.23674 3.67906 7.1665 3.50949 7.1665 3.33268C7.1665 3.15587 7.23674 2.9863 7.36177 2.86128C7.48679 2.73625 7.65636 2.66602 7.83317 2.66602H8.49984C8.67665 2.66602 8.84622 2.73625 8.97124 2.86128C9.09627 2.9863 9.1665 3.15587 9.1665 3.33268C9.1665 3.50949 9.09627 3.67906 8.97124 3.80409C8.84622 3.92911 8.67665 3.99935 8.49984 3.99935Z" fill="white"/>
<path d="M11.8333 3.99935H11.1667C10.9899 3.99935 10.8203 3.92911 10.6953 3.80409C10.5702 3.67906 10.5 3.50949 10.5 3.33268C10.5 3.15587 10.5702 2.9863 10.6953 2.86128C10.8203 2.73625 10.9899 2.66602 11.1667 2.66602H11.8333C12.0101 2.66602 12.1797 2.73625 12.3047 2.86128C12.4298 2.9863 12.5 3.15587 12.5 3.33268C12.5 3.50949 12.4298 3.67906 12.3047 3.80409C12.1797 3.92911 12.0101 3.99935 11.8333 3.99935Z" fill="white"/>
<path d="M25.1668 19.9993H4.50016C4.32335 19.9993 4.15378 19.9291 4.02876 19.8041C3.90373 19.6791 3.8335 19.5095 3.8335 19.3327C3.8335 19.1559 3.90373 18.9863 4.02876 18.8613C4.15378 18.7363 4.32335 18.666 4.50016 18.666H25.1668C25.3436 18.666 25.5132 18.7363 25.6382 18.8613C25.7633 18.9863 25.8335 19.1559 25.8335 19.3327C25.8335 19.5095 25.7633 19.6791 25.6382 19.8041C25.5132 19.9291 25.3436 19.9993 25.1668 19.9993Z" fill="#C3D2EA"/>
<path d="M21.8335 23.3333H4.50016C4.32335 23.3333 4.15378 23.2631 4.02876 23.1381C3.90373 23.013 3.8335 22.8435 3.8335 22.6667C3.8335 22.4899 3.90373 22.3203 4.02876 22.1953C4.15378 22.0702 4.32335 22 4.50016 22H21.8335C22.0103 22 22.1799 22.0702 22.3049 22.1953C22.4299 22.3203 22.5002 22.4899 22.5002 22.6667C22.5002 22.8435 22.4299 23.013 22.3049 23.1381C22.1799 23.2631 22.0103 23.3333 21.8335 23.3333Z" fill="#C3D2EA"/>
<path d="M20.5002 26.6654H4.50016C4.32335 26.6654 4.15378 26.5951 4.02876 26.4701C3.90373 26.3451 3.8335 26.1755 3.8335 25.9987C3.8335 25.8219 3.90373 25.6523 4.02876 25.5273C4.15378 25.4023 4.32335 25.332 4.50016 25.332H20.5002C20.677 25.332 20.8465 25.4023 20.9716 25.5273C21.0966 25.6523 21.1668 25.8219 21.1668 25.9987C21.1668 26.1755 21.0966 26.3451 20.9716 26.4701C20.8465 26.5951 20.677 26.6654 20.5002 26.6654Z" fill="#C3D2EA"/>
<path d="M19.8335 29.9993H17.1668C16.99 29.9993 16.8204 29.9291 16.6954 29.8041C16.5704 29.6791 16.5002 29.5095 16.5002 29.3327C16.5002 29.1559 16.5704 28.9863 16.6954 28.8613C16.8204 28.7363 16.99 28.666 17.1668 28.666H19.8335C20.0103 28.666 20.1799 28.7363 20.3049 28.8613C20.4299 28.9863 20.5002 29.1559 20.5002 29.3327C20.5002 29.5095 20.4299 29.6791 20.3049 29.8041C20.1799 29.9291 20.0103 29.9993 19.8335 29.9993Z" fill="#C3D2EA"/>
<path d="M31.8333 33.3333H17.1667C16.9899 33.3333 16.8203 33.2631 16.6953 33.1381C16.5702 33.013 16.5 32.8435 16.5 32.6667C16.5 32.4899 16.5702 32.3203 16.6953 32.1953C16.8203 32.0702 16.9899 32 17.1667 32H31.8333C32.0101 32 32.1797 32.0702 32.3047 32.1953C32.4298 32.3203 32.5 32.4899 32.5 32.6667C32.5 32.8435 32.4298 33.013 32.3047 33.1381C32.1797 33.2631 32.0101 33.3333 31.8333 33.3333Z" fill="#C3D2EA"/>
<path d="M31.8333 36.6654H17.1667C16.9899 36.6654 16.8203 36.5951 16.6953 36.4701C16.5702 36.3451 16.5 36.1755 16.5 35.9987C16.5 35.8219 16.5702 35.6523 16.6953 35.5273C16.8203 35.4023 16.9899 35.332 17.1667 35.332H31.8333C32.0101 35.332 32.1797 35.4023 32.3047 35.5273C32.4298 35.6523 32.5 35.8219 32.5 35.9987C32.5 36.1755 32.4298 36.3451 32.3047 36.4701C32.1797 36.5951 32.0101 36.6654 31.8333 36.6654Z" fill="#C3D2EA"/>
<path d="M25.7691 25.1173L33.3642 17.5222L34.3069 18.4649L26.7118 26.06L25.7691 25.1173Z" fill="#EAAD32"/>
<path d="M31.8084 15.9689L33.8346 13.9426L37.8872 17.9951L35.8609 20.0214L31.8084 15.9689Z" fill="#D5E1F7"/>
</svg>
