<svg width="41" height="41" viewBox="0 0 41 41" fill="none" xmlns="http://www.w3.org/2000/svg">
<path d="M34.4408 31.9277L32.6408 13.9277C32.5809 13.3103 32.2926 12.7375 31.8326 12.3213C31.3725 11.9052 30.7737 11.6757 30.1533 11.6777H8.17001C7.54966 11.6757 6.95086 11.9052 6.49079 12.3213C6.03072 12.7375 5.74249 13.3103 5.68251 13.9277L3.88251 31.9277C3.80099 32.7389 3.8904 33.5581 4.14497 34.3326C4.39954 35.1071 4.81363 35.8196 5.36051 36.4242C5.9074 37.0288 6.57495 37.5121 7.32009 37.8428C8.06524 38.1736 8.87143 38.3444 9.68668 38.3444H28.6367C29.4519 38.3444 30.2581 38.1736 31.0033 37.8428C31.7484 37.5121 32.416 37.0288 32.9628 36.4242C33.5097 35.8196 33.9238 35.1071 34.1784 34.3326C34.433 33.5581 34.5224 32.7389 34.4408 31.9277Z" fill="#FFC127"/>
<path d="M12.495 16.6771C13.4155 16.6771 14.1617 15.9309 14.1617 15.0104C14.1617 14.0899 13.4155 13.3438 12.495 13.3438C11.5746 13.3438 10.8284 14.0899 10.8284 15.0104C10.8284 15.9309 11.5746 16.6771 12.495 16.6771Z" fill="#EE4D2D"/>
<path d="M25.8284 16.6771C26.7489 16.6771 27.495 15.9309 27.495 15.0104C27.495 14.0899 26.7489 13.3438 25.8284 13.3438C24.9079 13.3438 24.1617 14.0899 24.1617 15.0104C24.1617 15.9309 24.9079 16.6771 25.8284 16.6771Z" fill="#EE4D2D"/>
<path d="M25.8284 15.8438C25.6074 15.8438 25.3954 15.756 25.2391 15.5997C25.0828 15.4434 24.995 15.2314 24.995 15.0104V10.8438C24.995 9.29665 24.3805 7.81292 23.2865 6.71896C22.1925 5.625 20.7088 5.01042 19.1617 5.01042C17.6146 5.01042 16.1309 5.625 15.0369 6.71896C13.943 7.81292 13.3284 9.29665 13.3284 10.8438V15.0104C13.3284 15.2314 13.2406 15.4434 13.0843 15.5997C12.928 15.756 12.7161 15.8438 12.495 15.8438C12.274 15.8438 12.0621 15.756 11.9058 15.5997C11.7495 15.4434 11.6617 15.2314 11.6617 15.0104V10.8438C11.6617 8.85463 12.4519 6.94697 13.8584 5.54045C15.2649 4.13393 17.1726 3.34375 19.1617 3.34375C21.1508 3.34375 23.0585 4.13393 24.465 5.54045C25.8715 6.94697 26.6617 8.85463 26.6617 10.8438V15.0104C26.6617 15.2314 26.5739 15.4434 26.4176 15.5997C26.2614 15.756 26.0494 15.8438 25.8284 15.8438Z" fill="#EE4D2D"/>
<path d="M29.1615 38.3431C34.2242 38.3431 38.3282 34.239 38.3282 29.1764C38.3282 24.1138 34.2242 20.0098 29.1615 20.0098C24.0989 20.0098 19.9949 24.1138 19.9949 29.1764C19.9949 34.239 24.0989 38.3431 29.1615 38.3431Z" fill="#EE4D2D"/>
<path d="M28.3282 32.5099C28.1072 32.5099 27.8953 32.4221 27.7391 32.2658L25.2391 29.7658C25.0873 29.6086 25.0033 29.3981 25.0052 29.1796C25.0071 28.9611 25.0947 28.7521 25.2492 28.5976C25.4037 28.4431 25.6127 28.3554 25.8312 28.3535C26.0497 28.3516 26.2602 28.4356 26.4174 28.5874L28.3282 30.4983L32.7391 26.0874C32.8962 25.9356 33.1067 25.8516 33.3252 25.8535C33.5437 25.8554 33.7527 25.9431 33.9072 26.0976C34.0617 26.2521 34.1494 26.4611 34.1513 26.6796C34.1532 26.8981 34.0692 27.1086 33.9174 27.2658L28.9174 32.2658C28.7611 32.4221 28.5492 32.5099 28.3282 32.5099Z" fill="white"/>
</svg>
