<svg width="41" height="41" viewBox="0 0 41 41" fill="none" xmlns="http://www.w3.org/2000/svg">
<path fill-rule="evenodd" clip-rule="evenodd" d="M17.6943 30.3359C17.9982 29.2195 17.3311 28.0531 16.2146 27.7492L9.11699 25.8172C8.1748 25.6922 7.31934 25.9203 6.56543 26.4984L3.76465 28.643L5.78887 36.1961C7.19668 34.8398 8.44746 34.5695 9.81309 34.8828L13.8787 35.8148C14.8045 36.0273 15.6748 35.9453 16.4975 35.4703L26.6639 29.6008C27.5709 29.0773 27.885 27.9062 27.3607 26.9992C26.8373 26.0922 25.6662 25.7781 24.7592 26.3023L17.6787 30.3898C17.6842 30.3719 17.6896 30.3539 17.6943 30.3359Z" fill="#FFD6BD"/>
<path fill-rule="evenodd" clip-rule="evenodd" d="M15.1083 31.8156C16.2263 32.1203 17.3904 31.4539 17.6943 30.3359C17.7044 30.2992 17.713 30.2633 17.7208 30.2266C17.2107 30.8601 16.3544 31.1703 15.5232 30.9437L11.7318 29.9117C11.4794 29.843 11.2177 29.993 11.149 30.2453C11.0802 30.4969 11.231 30.7601 11.4826 30.8281L15.1083 31.8156Z" fill="#F9C6AA"/>
<path fill-rule="evenodd" clip-rule="evenodd" d="M3.83418 27.3992L6.28261 36.5367C6.34199 36.7593 6.20918 36.9906 5.98574 37.05L4.29668 37.5023C4.07402 37.5617 3.84277 37.4289 3.78261 37.2054L1.33496 28.0687C1.27558 27.8461 1.4084 27.6148 1.63183 27.5547L3.3209 27.1023C3.54355 27.0422 3.7748 27.1758 3.83418 27.3992Z" fill="#4294FF"/>
<path fill-rule="evenodd" clip-rule="evenodd" d="M27.678 9.56951C31.3428 15.8586 33.1749 19.0031 33.1749 19.0031C34.328 16.8023 35.0577 15.1594 37.6374 14.7164C37.8194 9.87186 37.91 7.44998 37.91 7.44998C31.0889 8.86326 27.678 9.56951 27.678 9.56951Z" fill="#F9C6AA"/>
<path fill-rule="evenodd" clip-rule="evenodd" d="M33.4498 8.08358V20.5344C33.4498 21.2844 32.838 21.8961 32.088 21.8961H5.96304C5.21304 21.8961 4.60132 21.2844 4.60132 20.5344V8.08358C4.60132 7.33358 5.21304 6.72186 5.96304 6.72186H32.0888C32.838 6.72186 33.4498 7.33358 33.4498 8.08358Z" fill="#22C269"/>
<path fill-rule="evenodd" clip-rule="evenodd" d="M8.57866 21.8953H5.96304C5.21304 21.8953 4.60132 21.2836 4.60132 20.5336V17.918C6.79819 17.918 8.57866 19.6992 8.57866 21.8953Z" fill="#1CB15F"/>
<path fill-rule="evenodd" clip-rule="evenodd" d="M33.4498 17.918V20.5336C33.4498 21.2836 32.838 21.8953 32.088 21.8953H29.4724C29.4724 19.6992 31.2529 17.918 33.4498 17.918Z" fill="#1CB15F"/>
<path fill-rule="evenodd" clip-rule="evenodd" d="M33.4498 8.08358V10.6992C31.2529 10.6992 29.4724 8.91874 29.4724 6.72186H32.088C32.838 6.72186 33.4498 7.33358 33.4498 8.08358Z" fill="#1CB15F"/>
<path fill-rule="evenodd" clip-rule="evenodd" d="M4.60132 10.6992V8.08358C4.60132 7.33358 5.21304 6.72186 5.96304 6.72186H8.57866C8.57866 8.91874 6.79819 10.6992 4.60132 10.6992Z" fill="#1CB15F"/>
<path d="M19.12 19.2621C21.852 19.2102 24.0248 16.9533 23.9728 14.2212C23.9209 11.4891 21.6641 9.31641 18.932 9.36832C16.1999 9.42023 14.0272 11.6771 14.0791 14.4092C14.131 17.1413 16.3879 19.314 19.12 19.2621Z" fill="#EFF4F7"/>
<path fill-rule="evenodd" clip-rule="evenodd" d="M18.4544 11.193C18.4544 10.8477 18.7341 10.568 19.0794 10.568C19.4248 10.568 19.7044 10.8477 19.7044 11.193V11.3734C19.8373 11.4078 19.9646 11.4562 20.0857 11.5187C20.3435 11.6516 20.5646 11.8414 20.7302 12.0695C20.9326 12.3484 20.8701 12.7391 20.5912 12.9414C20.3123 13.1437 19.9216 13.0812 19.7193 12.8023C19.6654 12.7273 19.5966 12.6672 19.5193 12.6273C19.4459 12.5898 19.3599 12.5687 19.2654 12.5687H18.8927C18.7396 12.5687 18.6005 12.632 18.499 12.7328C18.3974 12.8336 18.3349 12.9734 18.3349 13.1266C18.3349 13.2797 18.3982 13.4187 18.499 13.5203C18.5998 13.6219 18.7396 13.6844 18.8927 13.6844H19.1568C19.6544 13.6844 20.1068 13.8875 20.4341 14.2148C20.7615 14.5422 20.9646 14.9945 20.9646 15.4922C20.9646 15.9898 20.7615 16.4422 20.4341 16.7695C20.206 16.9977 19.9177 17.1648 19.5958 17.2461V17.425C19.5958 17.7703 19.3162 18.05 18.9708 18.05C18.6255 18.05 18.3458 17.7703 18.3458 17.425V17.2445C18.213 17.2102 18.0857 17.1617 17.9646 17.0992C17.7068 16.9664 17.4857 16.7766 17.3201 16.5484C17.1177 16.2695 17.1802 15.8789 17.4591 15.6766C17.738 15.4742 18.1287 15.5367 18.331 15.8156C18.3849 15.8906 18.4537 15.9508 18.531 15.9906C18.6044 16.0281 18.6904 16.0492 18.7849 16.0492H19.1576C19.3099 16.0492 19.4498 15.9859 19.5513 15.8851C19.6529 15.7836 19.7154 15.6445 19.7154 15.4914C19.7154 15.3383 19.6521 15.1992 19.5513 15.0977C19.4498 14.9961 19.3107 14.9336 19.1576 14.9336H18.8935C18.3958 14.9336 17.9435 14.7305 17.6162 14.4031C17.2888 14.0758 17.0857 13.6234 17.0857 13.1258C17.0857 12.6281 17.2888 12.1758 17.6162 11.8484C17.8443 11.6203 18.1326 11.4531 18.4544 11.3719V11.193Z" fill="#22C269"/>
<path fill-rule="evenodd" clip-rule="evenodd" d="M33.4497 8.08358V11.9601C32.3419 12.1039 31.2981 12.1742 30.1981 11.857C29.0622 11.5289 28.1067 10.8492 27.2739 10.0359C26.1638 10.6672 25.0481 11.2898 23.945 11.9328C22.3247 12.8766 20.227 12.3234 19.2833 10.7031C18.5263 9.40389 18.7341 7.79452 19.6825 6.72186H32.088C32.838 6.72186 33.4497 7.33358 33.4497 8.08358Z" fill="#1CB15F"/>
<path fill-rule="evenodd" clip-rule="evenodd" d="M19.0255 9.36169C20.9864 9.36169 22.681 10.5031 23.4817 12.1578C21.945 12.764 20.1395 12.1719 19.2841 10.7031C19.038 10.2804 18.8935 9.82498 18.8442 9.3656C18.9036 9.36326 18.9646 9.36169 19.0255 9.36169Z" fill="#E9E8E6"/>
<path fill-rule="evenodd" clip-rule="evenodd" d="M19.2178 10.5836C19.4967 10.6461 19.7045 10.8953 19.7045 11.193V11.2773C19.5475 11.1047 19.4061 10.9133 19.2834 10.7031C19.2607 10.6633 19.2389 10.6234 19.2178 10.5836ZM19.8342 11.4125C19.9209 11.4414 20.0045 11.4773 20.0857 11.5187C20.3287 11.6437 20.5389 11.8195 20.7006 12.0305C20.385 11.8726 20.092 11.6656 19.8342 11.4125Z" fill="#1CB15F"/>
<path fill-rule="evenodd" clip-rule="evenodd" d="M38.3873 6.40545L38.4545 9.03358L33.4498 10.6992C31.3592 10.982 29.7756 11.0461 27.5069 8.46249C26.3076 9.15467 24.3897 10.2273 23.3162 10.8531C22.2905 11.4508 20.9615 11.1008 20.3639 10.0742C19.767 9.04999 20.1178 7.71874 21.1428 7.12186C23.3139 5.85702 25.2842 4.65624 27.5006 3.47342C28.36 3.01483 29.2944 3.13124 30.2069 3.47108C32.9225 4.48124 33.8826 6.31639 38.3873 6.40545Z" fill="#FFD6BD"/>
<path fill-rule="evenodd" clip-rule="evenodd" d="M36.917 5.1867V16.0039C36.917 16.2781 37.1412 16.5023 37.4154 16.5023H39.4943C39.7686 16.5023 39.9928 16.2781 39.9928 16.0039V5.1867C39.9928 4.91248 39.7686 4.68826 39.4943 4.68826H37.4154C37.1412 4.68826 36.917 4.91248 36.917 5.1867Z" fill="#4294FF"/>
</svg>
