<svg width="41" height="40" viewBox="0 0 41 40" fill="none" xmlns="http://www.w3.org/2000/svg">
<path d="M21.6951 3.75L30.4451 12.5V37.5H12.9451V12.5L21.6951 3.75Z" fill="#F3A845"/>
<path d="M21.6951 12.5C22.7306 12.5 23.5701 11.6605 23.5701 10.625C23.5701 9.58947 22.7306 8.75 21.6951 8.75C20.6595 8.75 19.8201 9.58947 19.8201 10.625C19.8201 11.6605 20.6595 12.5 21.6951 12.5Z" fill="white"/>
<path d="M21.6951 11.25C21.5293 11.25 21.3703 11.1842 21.2531 11.0669C21.1359 10.9497 21.0701 10.7908 21.0701 10.625V1.25C21.0701 1.08424 21.1359 0.925268 21.2531 0.808058C21.3703 0.690848 21.5293 0.625 21.6951 0.625C21.8608 0.625 22.0198 0.690848 22.137 0.808058C22.2542 0.925268 22.3201 1.08424 22.3201 1.25V10.625C22.3201 10.7908 22.2542 10.9497 22.137 11.0669C22.0198 11.1842 21.8608 11.25 21.6951 11.25Z" fill="#E3E8F6"/>
<path d="M29.8201 35.625H18.5701C18.4043 35.625 18.2453 35.5592 18.1281 35.4419C18.0109 35.3247 17.9451 35.1658 17.9451 35C17.9451 34.8342 18.0109 34.6753 18.1281 34.5581C18.2453 34.4408 18.4043 34.375 18.5701 34.375H29.8201C29.9858 34.375 30.1448 34.4408 30.262 34.5581C30.3792 34.6753 30.4451 34.8342 30.4451 35C30.4451 35.1658 30.3792 35.3247 30.262 35.4419C30.1448 35.5592 29.9858 35.625 29.8201 35.625Z" fill="#FCE79C"/>
<path d="M19.1951 5L27.9451 13.75V38.75H10.4451V13.75L19.1951 5Z" fill="#F3A845"/>
<path d="M19.8201 5.625L11.6951 13.75V38.75H27.9451V13.75L19.8201 5.625Z" fill="#EECC61"/>
<path d="M19.1951 32.5C22.992 32.5 26.0701 29.422 26.0701 25.625C26.0701 21.828 22.992 18.75 19.1951 18.75C15.3981 18.75 12.3201 21.828 12.3201 25.625C12.3201 29.422 15.3981 32.5 19.1951 32.5Z" fill="#E3E8F6"/>
<path d="M19.8201 32.4684C23.2718 32.4684 26.0701 29.4045 26.0701 25.625C26.0701 21.8455 23.2718 18.7816 19.8201 18.7816C16.3683 18.7816 13.5701 21.8455 13.5701 25.625C13.5701 29.4045 16.3683 32.4684 19.8201 32.4684Z" fill="#F8F7FE"/>
<path d="M4.82007 9.375L4.64983 10.056C4.51244 10.6054 4.22834 11.1071 3.82791 11.5075C3.42748 11.908 2.92577 12.1921 2.3764 12.3295L1.69507 12.5L2.3753 12.6701C2.92501 12.8075 3.42701 13.0918 3.82758 13.4926C4.22814 13.8934 4.51221 14.3955 4.64937 14.9453L4.81913 15.625L4.99007 14.9424C5.12754 14.3934 5.41156 13.8919 5.81178 13.4917C6.21201 13.0915 6.71343 12.8075 7.26249 12.67L7.94507 12.4991L7.26538 12.3293C6.71567 12.1921 6.21361 11.908 5.81291 11.5074C5.41221 11.1069 5.12795 10.6049 4.99054 10.0552L4.82007 9.375Z" fill="#F3A845"/>
<path d="M4.99007 14.9424C5.12753 14.3933 5.41154 13.8919 5.81177 13.4917C6.212 13.0914 6.71342 12.8074 7.26249 12.6699L7.94507 12.4991L7.26538 12.3293C6.71567 12.1921 6.21361 11.908 5.81291 11.5074C5.41221 11.1069 5.12795 10.6049 4.99054 10.0552L4.82007 9.375V15.6212L4.99007 14.9424Z" fill="#EECC61"/>
<path d="M19.8201 25.0894V22.6745C20.0094 22.7834 20.1668 22.9401 20.2765 23.129C20.3862 23.3178 20.4443 23.5322 20.4451 23.7506C20.4451 23.9164 20.5109 24.0754 20.6281 24.1926C20.7453 24.3098 20.9043 24.3756 21.0701 24.3756C21.2358 24.3756 21.3948 24.3098 21.512 24.1926C21.6292 24.0754 21.6951 23.9164 21.6951 23.7506C21.6935 23.1979 21.5086 22.6612 21.1692 22.2249C20.8299 21.7885 20.3554 21.4771 19.8201 21.3394V20.625C19.8201 20.4592 19.7542 20.3003 19.637 20.1831C19.5198 20.0658 19.3608 20 19.1951 20C19.0293 20 18.8703 20.0658 18.7531 20.1831C18.6359 20.3003 18.5701 20.4592 18.5701 20.625V21.3394C18.034 21.4757 17.5586 21.7867 17.2191 22.2234C16.8795 22.6601 16.6952 23.1975 16.6952 23.7506C16.6952 24.3038 16.8795 24.8411 17.2191 25.2778C17.5586 25.7145 18.034 26.0256 18.5701 26.1619V28.5766C18.3807 28.4678 18.2233 28.3111 18.1137 28.1222C18.004 27.9334 17.9458 27.719 17.9451 27.5006C17.9451 27.3349 17.8792 27.1759 17.762 27.0587C17.6448 26.9415 17.4858 26.8756 17.3201 26.8756C17.1543 26.8756 16.9953 26.9415 16.8781 27.0587C16.7609 27.1759 16.6951 27.3349 16.6951 27.5006C16.6967 28.0534 16.8816 28.59 17.2209 29.0263C17.5602 29.4627 18.0347 29.7741 18.5701 29.9119V30.625C18.5701 30.7908 18.6359 30.9497 18.7531 31.0669C18.8703 31.1842 19.0293 31.25 19.1951 31.25C19.3608 31.25 19.5198 31.1842 19.637 31.0669C19.7542 30.9497 19.8201 30.7908 19.8201 30.625V29.9119C20.3562 29.7756 20.8315 29.4645 21.1711 29.0278C21.5106 28.5911 21.695 28.0538 21.695 27.5006C21.695 26.9475 21.5106 26.4101 21.1711 25.9734C20.8315 25.5367 20.3562 25.2257 19.8201 25.0894ZM17.9451 23.7506C17.9458 23.5322 18.0039 23.3178 18.1136 23.129C18.2233 22.9401 18.3807 22.7834 18.5701 22.6745V24.8266C18.3807 24.7178 18.2233 24.5611 18.1137 24.3722C18.004 24.1834 17.9458 23.969 17.9451 23.7506ZM19.8201 28.5766V26.4245C20.0099 26.5328 20.1677 26.6894 20.2775 26.8784C20.3872 27.0674 20.4451 27.282 20.4451 27.5006C20.4451 27.7191 20.3872 27.9338 20.2775 28.1228C20.1677 28.3118 20.0099 28.4683 19.8201 28.5766Z" fill="#EECC61"/>
<path d="M19.1951 13.75C20.2306 13.75 21.0701 12.9105 21.0701 11.875C21.0701 10.8395 20.2306 10 19.1951 10C18.1595 10 17.3201 10.8395 17.3201 11.875C17.3201 12.9105 18.1595 13.75 19.1951 13.75Z" fill="white"/>
<path d="M19.1951 12.5C19.0293 12.5 18.8703 12.4342 18.7531 12.3169C18.6359 12.1997 18.5701 12.0408 18.5701 11.875V1.25C18.5701 1.08424 18.6359 0.925268 18.7531 0.808058C18.8703 0.690848 19.0293 0.625 19.1951 0.625C19.3608 0.625 19.5198 0.690848 19.637 0.808058C19.7542 0.925268 19.8201 1.08424 19.8201 1.25V11.875C19.8201 12.0408 19.7542 12.1997 19.637 12.3169C19.5198 12.4342 19.3608 12.5 19.1951 12.5Z" fill="#E3E8F6"/>
<path d="M27.3201 36.875H16.0701C15.9043 36.875 15.7453 36.8092 15.6281 36.6919C15.5109 36.5747 15.4451 36.4158 15.4451 36.25C15.4451 36.0842 15.5109 35.9253 15.6281 35.8081C15.7453 35.6908 15.9043 35.625 16.0701 35.625H27.3201C27.4858 35.625 27.6448 35.6908 27.762 35.8081C27.8792 35.9253 27.9451 36.0842 27.9451 36.25C27.9451 36.4158 27.8792 36.5747 27.762 36.6919C27.6448 36.8092 27.4858 36.875 27.3201 36.875Z" fill="#FCE79C"/>
<path d="M13.5701 36.875H11.0701C10.9043 36.875 10.7453 36.8092 10.6281 36.6919C10.5109 36.5747 10.4451 36.4158 10.4451 36.25C10.4451 36.0842 10.5109 35.9253 10.6281 35.8081C10.7453 35.6908 10.9043 35.625 11.0701 35.625H13.5701C13.7358 35.625 13.8948 35.6908 14.012 35.8081C14.1292 35.9253 14.1951 36.0842 14.1951 36.25C14.1951 36.4158 14.1292 36.5747 14.012 36.6919C13.8948 36.8092 13.7358 36.875 13.5701 36.875Z" fill="#FCE79C"/>
<path d="M36.0701 4.375L35.8998 5.05602C35.7624 5.60539 35.4783 6.1071 35.0779 6.50753C34.6775 6.90796 34.1758 7.19206 33.6264 7.32945L32.9451 7.5L33.6253 7.67008C34.175 7.80752 34.677 8.09184 35.0776 8.49261C35.4781 8.89339 35.7622 9.39553 35.8994 9.94531L36.0691 10.625L36.2401 9.94242C36.3775 9.39336 36.6616 8.89195 37.0618 8.49172C37.462 8.09149 37.9634 7.80747 38.5125 7.67L39.1951 7.49906L38.5154 7.3293C37.9657 7.19208 37.4636 6.90799 37.0629 6.50742C36.6622 6.10686 36.3779 5.6049 36.2405 5.05523L36.0701 4.375Z" fill="#F3A845"/>
<path d="M36.2401 9.94242C36.3775 9.39335 36.6615 8.89191 37.0618 8.49167C37.462 8.09143 37.9634 7.8074 38.5125 7.66992L39.1951 7.49906L38.5154 7.3293C37.9657 7.19208 37.4636 6.90799 37.0629 6.50742C36.6622 6.10686 36.3779 5.6049 36.2405 5.05523L36.0701 4.375V10.6212L36.2401 9.94242Z" fill="#EECC61"/>
</svg>
