<svg width="40" height="41" viewBox="0 0 40 41" fill="none" xmlns="http://www.w3.org/2000/svg">
<path d="M36.5078 15.0703V34.6719C36.5078 35.6172 35.7422 36.3828 34.7969 36.3828H5.20312C4.25781 36.3828 3.49219 35.6172 3.49219 34.6719V15.0703H36.5078Z" fill="#F3F3F3"/>
<path d="M36.5078 10.25V15.0703H3.49219V10.25C3.49219 8.42969 4.96875 6.95312 6.78906 6.95312H33.2031C35.0313 6.95312 36.5078 8.42969 36.5078 10.25Z" fill="#ED1E79"/>
<path d="M11.6406 11.8906H10.4531C10.0625 11.8906 9.75 11.5781 9.75 11.1875V5.01562C9.75 4.625 10.0625 4.3125 10.4531 4.3125H11.6406C12.0312 4.3125 12.3437 4.625 12.3437 5.01562V11.1875C12.3516 11.5781 12.0312 11.8906 11.6406 11.8906Z" fill="#FBB03A"/>
<path d="M29.4141 11.8906H28.2266C27.8359 11.8906 27.5234 11.5781 27.5234 11.1875V5.01562C27.5234 4.625 27.8359 4.3125 28.2266 4.3125H29.4141C29.8047 4.3125 30.1172 4.625 30.1172 5.01562V11.1875C30.1172 11.5781 29.8047 11.8906 29.4141 11.8906Z" fill="#FBB03A"/>
<path d="M20 33.2891C24.1767 33.2891 27.5625 29.9032 27.5625 25.7266C27.5625 21.5499 24.1767 18.1641 20 18.1641C15.8233 18.1641 12.4375 21.5499 12.4375 25.7266C12.4375 29.9032 15.8233 33.2891 20 33.2891Z" fill="#ED1E79"/>
<path d="M20 31.5391C16.7891 31.5391 14.1797 28.9297 14.1797 25.7187C14.1797 22.5078 16.7891 19.8984 20 19.8984C23.2109 19.8984 25.8203 22.5078 25.8203 25.7187C25.8203 28.9297 23.2109 31.5391 20 31.5391Z" fill="#F2F2F2"/>
<path d="M20 26.1797H18.0391C17.7812 26.1797 17.5781 25.9766 17.5781 25.7188C17.5781 25.4609 17.7812 25.2578 18.0391 25.2578H19.5547V22.3906C19.5547 22.1328 19.7578 21.9297 20.0156 21.9297C20.2734 21.9297 20.4766 22.1328 20.4766 22.3906V25.7188C20.4609 25.9688 20.2578 26.1797 20 26.1797Z" fill="#29ABE2"/>
</svg>
