<svg width="41" height="40" viewBox="0 0 41 40" fill="none" xmlns="http://www.w3.org/2000/svg">
<g clip-path="url(#clip0_151_2207)">
<path d="M28.8414 24.4332V36.6839L27.8473 37.4886H20.2903L18.6808 37.4082C18.2125 37.4082 17.7601 37.3301 17.3883 37.0452C16.4089 36.2943 15.3723 35.3302 14.1128 35.2554V25.0432C17.0753 21.6582 20.8304 21.3396 20.5672 16.2814C20.5222 15.4057 22.2154 14.8954 22.4994 15.2593C22.611 15.4021 22.6979 15.5664 22.7531 15.747C23.5096 18.2282 23.7261 20.6909 22.8401 23.2405C22.7966 23.3668 22.7499 23.494 22.7001 23.6212C22.6993 23.6236 22.6984 23.6261 22.6976 23.6285L23.2905 24.4332L23.9072 23.6285H27.0426L28.8414 24.4332Z" fill="#FFCEBF"/>
<path d="M15.7224 34.9643V25.512C15.7224 25.1989 15.8457 24.8993 16.0617 24.6726C18.9634 21.6279 22.4298 21.1494 22.177 16.2822C22.157 15.8976 22.2805 15.5401 22.4996 15.2601C22.1994 14.8755 21.7217 14.6469 21.2088 14.6741C20.3653 14.7188 19.722 15.4627 19.7638 16.3062C20.0133 21.3417 16.2661 21.6641 13.308 25.0439L11.6984 29.9991L13.308 36.0612C14.5678 36.1361 15.6043 36.2952 16.5838 37.0462C16.9551 37.3309 17.408 37.4894 17.876 37.4894H20.2903C19.8224 37.4894 19.3695 37.3309 18.9982 37.0462C18.3021 36.5124 17.5771 36.2776 16.7638 36.1596C16.1674 36.0732 15.7224 35.5669 15.7224 34.9643Z" fill="#FFB09E"/>
<path d="M12.7486 37.4872L10.2375 37.4886L8.62793 36.6852V23.1884L10.2375 22.3823L12.748 22.3809C13.0593 22.3807 13.3117 22.633 13.3117 22.9442V36.9238C13.3117 37.2348 13.0596 37.487 12.7486 37.4872Z" fill="#F25E6C"/>
<path d="M10.2376 22.3828H8.3866C8.07543 22.3828 7.82324 22.635 7.82324 22.9462V36.9255C7.82324 37.2367 8.07566 37.489 8.38691 37.4888L10.2376 37.4878V22.3828Z" fill="#E8465E"/>
<path d="M21.0057 2.82383L21.7696 4.37188C21.8517 4.53813 22.0103 4.65336 22.1938 4.68008L23.9021 4.92828C24.3643 4.99539 24.5487 5.56328 24.2143 5.88922L22.9782 7.09422C22.8454 7.22367 22.7848 7.41008 22.8161 7.59289L20.7625 8.28008C20.5984 8.19383 20.4024 8.19383 20.2382 8.28008L18.9895 7.59289C19.0208 7.41016 18.9603 7.22367 18.8275 7.09422L18.8071 4.68008C18.9906 4.65344 19.1492 4.5382 19.2312 4.37188L19.9952 2.82383C20.202 2.40508 20.799 2.40508 21.0057 2.82383Z" fill="#FED44C"/>
<path d="M22.8162 7.5925L23.108 9.29398C23.1869 9.75422 22.7038 10.1052 22.2905 9.88789L20.7626 9.08461C20.5984 8.99836 20.4024 8.99836 20.2383 9.08461L18.7103 9.88789C18.297 10.1052 17.814 9.75422 17.8929 9.29398L18.1847 7.5925C18.216 7.40977 18.1555 7.22328 18.0226 7.09383L16.7865 5.88883C16.4521 5.56289 16.6366 4.99508 17.0987 4.92789L18.807 4.67969C19.8662 6.50555 20.5005 7.49992 22.8162 7.5925Z" fill="#F2B84C"/>
<path d="M12.1214 6.04258L12.8854 7.59062C12.9675 7.75687 13.1261 7.87211 13.3096 7.89883L15.0179 8.14703C15.48 8.21414 15.6645 8.78203 15.3301 9.10797L14.0939 10.313C13.9611 10.4424 13.9006 10.6288 13.9319 10.8116L11.8783 11.4988C11.7142 11.4126 11.5182 11.4126 11.354 11.4988L10.1053 10.8116C10.1366 10.6289 10.0761 10.4424 9.94324 10.313L9.92285 7.89883C10.1064 7.87219 10.265 7.75695 10.347 7.59062L11.111 6.04258C11.3178 5.62383 11.9148 5.62383 12.1214 6.04258Z" fill="#FED44C"/>
<path d="M13.9319 10.8112L14.2237 12.5127C14.3026 12.973 13.8195 13.3239 13.4063 13.1066L11.8783 12.3034C11.7141 12.2171 11.5181 12.2171 11.354 12.3034L9.82602 13.1066C9.41274 13.3239 8.92969 12.973 9.0086 12.5127L9.3004 10.8112C9.33172 10.6285 9.27118 10.442 9.13836 10.3126L7.90219 9.10758C7.56782 8.78164 7.75235 8.21383 8.21438 8.14664L9.92274 7.89844C10.7626 9.95336 11.751 10.5355 13.9319 10.8112Z" fill="#F2B84C"/>
<path d="M4.89 13.2867L5.65398 14.8348C5.73602 15.001 5.89469 15.1163 6.07813 15.143L7.78648 15.3912C8.24859 15.4583 8.43305 16.0262 8.09867 16.3521L6.8625 17.5571C6.72969 17.6866 6.66914 17.873 6.70047 18.0558L4.64687 18.743C4.48273 18.6567 4.28672 18.6567 4.12258 18.743L2.87383 18.0558C2.90516 17.873 2.84461 17.6866 2.7118 17.5571L2.69141 15.143C2.87492 15.1163 3.03352 15.0011 3.11555 14.8348L3.87953 13.2867C4.08633 12.868 4.68336 12.868 4.89 13.2867Z" fill="#FED44C"/>
<path d="M6.70036 18.0553L6.99215 19.7568C7.07106 20.217 6.58801 20.5679 6.17473 20.3507L4.64676 19.5474C4.48262 19.4611 4.28661 19.4611 4.12247 19.5474L2.5945 20.3506C2.18122 20.5678 1.69817 20.2169 1.77707 19.7567L2.06887 18.0552C2.1002 17.8725 2.03965 17.686 1.90684 17.5565L0.670747 16.3516C0.336372 16.0257 0.520903 15.4578 0.982934 15.3907L2.69129 15.1425C3.33145 17.0756 4.53864 17.9072 6.70036 18.0553Z" fill="#F2B84C"/>
<path d="M37.1205 13.2867L37.8845 14.8348C37.9665 15.001 38.1252 15.1163 38.3086 15.143L40.017 15.3912C40.4791 15.4583 40.6635 16.0262 40.3291 16.3521L39.093 17.5571C38.9602 17.6866 38.8996 17.873 38.9309 18.0558L36.8773 18.743C36.7132 18.6567 36.5172 18.6567 36.353 18.743L35.1043 18.0558C35.1356 17.873 35.0751 17.6866 34.9423 17.5571L34.9219 15.143C35.1054 15.1163 35.264 15.0011 35.346 14.8348L36.11 13.2867C36.3168 12.868 36.9138 12.868 37.1205 13.2867Z" fill="#FED44C"/>
<path d="M38.9311 18.0553L39.2229 19.7568C39.3018 20.217 38.8187 20.5679 38.4054 20.3507L36.8775 19.5474C36.7133 19.4611 36.5173 19.4611 36.3532 19.5474L34.8252 20.3507C34.4119 20.5679 33.9289 20.217 34.0078 19.7568L34.2996 18.0553C34.3309 17.8725 34.2704 17.686 34.1375 17.5566L32.9014 16.3516C32.567 16.0257 32.7515 15.4578 33.2136 15.3907L34.9219 15.1425C35.7112 16.9146 36.7498 17.8804 38.9311 18.0553Z" fill="#F2B84C"/>
<path d="M29.9139 6.04258L30.6779 7.59062C30.7599 7.75687 30.9186 7.87211 31.1021 7.89883L32.8104 8.14703C33.2725 8.21414 33.457 8.78203 33.1226 9.10797L31.8864 10.313C31.7536 10.4424 31.6931 10.6288 31.7244 10.8116L29.6708 11.4988C29.5067 11.4126 29.3106 11.4126 29.1465 11.4988L27.8978 10.8116C27.9291 10.6289 27.8685 10.4424 27.7357 10.313L27.7153 7.89883C27.8988 7.87219 28.0574 7.75695 28.1395 7.59062L28.9035 6.04258C29.1103 5.62383 29.7073 5.62383 29.9139 6.04258Z" fill="#FED44C"/>
<path d="M31.7244 10.8112L32.0162 12.5127C32.0951 12.973 31.612 13.3239 31.1987 13.1066L29.6708 12.3034C29.5066 12.2171 29.3106 12.2171 29.1465 12.3034L27.6185 13.1066C27.2052 13.3239 26.7222 12.973 26.8011 12.5127L27.0929 10.8112C27.1242 10.6285 27.0637 10.442 26.9308 10.3126L25.6947 9.10758C25.3603 8.78164 25.5448 8.21383 26.0069 8.14664L27.7152 7.89844C28.7743 9.95336 29.4086 10.6901 31.7244 10.8112Z" fill="#F2B84C"/>
<path d="M30.6403 27.0942L29.457 28.0636L27.8474 27.0719C26.8905 27.0719 26.1148 26.3185 26.1148 25.3616C26.1148 24.4047 26.8905 23.6565 27.8474 23.6565L29.457 23.629H30.6403C31.5972 23.629 32.3729 24.4047 32.3729 25.3616C32.3729 26.3185 31.5972 27.0942 30.6403 27.0942Z" fill="#FFCEBF"/>
<path d="M27.7244 25.3616C27.7244 24.4047 28.5001 23.629 29.457 23.629H27.0426C26.0858 23.629 25.3101 24.4047 25.3101 25.3616C25.3101 26.3185 26.0858 27.0942 27.0426 27.0942H27.8474L28.608 27.5139L29.457 27.0942C28.5001 27.0942 27.7244 26.3185 27.7244 25.3616Z" fill="#FFB09E"/>
<path d="M30.6402 34.0238L30.0486 34.0367L29.0871 34.679L27.8473 33.9991C26.8904 33.9991 26.1147 33.248 26.1147 32.2912C26.1147 31.3343 26.8904 30.5821 27.8473 30.5821L29.4569 30.5586H30.6402C31.5971 30.5586 32.3728 31.3343 32.3728 32.2912C32.3728 33.248 31.5971 34.0238 30.6402 34.0238Z" fill="#FFCEBF"/>
<path d="M29.8353 37.4765L28.652 37.4083C27.6951 37.4083 26.9194 36.7131 26.9194 35.7562C26.9194 34.7994 27.6951 34.1041 28.652 34.1041L29.8353 34.0383C29.9075 34.0383 29.9786 34.028 30.0484 34.0366C30.9047 34.1417 31.5679 34.8715 31.5679 35.7562C31.5679 36.6409 30.9047 37.3708 30.0484 37.4758C29.9786 37.4844 29.9074 37.4765 29.8353 37.4765Z" fill="#FFCEBF"/>
<path d="M28.5291 35.758C28.5291 34.8733 29.1922 34.1434 30.0485 34.0384C29.9787 34.0298 29.9075 34.0254 29.8354 34.0254H27.8473C26.8904 34.0254 26.1147 34.8011 26.1147 35.758C26.1147 36.7148 26.8904 37.4905 27.8473 37.4905H29.8354C29.9076 37.4905 29.9787 37.4861 30.0485 37.4775C29.1922 37.3724 28.5291 36.6427 28.5291 35.758Z" fill="#FFB09E"/>
<path d="M31.4448 30.5589H30.6401L30.0484 31.3787L28.652 30.5455C27.6951 30.5455 26.9194 29.7832 26.9194 28.8263C26.9194 27.8695 27.6951 27.1151 28.652 27.1151L30.2616 27.0938H31.4449C32.4018 27.0938 33.1775 27.8695 33.1775 28.8263C33.1774 29.7832 32.4017 30.5589 31.4448 30.5589Z" fill="#FFCEBF"/>
<path d="M27.7244 32.2912C27.7244 31.3343 28.5001 30.5586 29.457 30.5586H27.0426C26.0858 30.5586 25.3101 31.3343 25.3101 32.2912C25.3101 33.248 26.0858 34.0238 27.0426 34.0238L27.7997 34.0334L28.1341 34.679L29.4571 34.0238C28.5001 34.0238 27.7244 33.248 27.7244 32.2912Z" fill="#FFB09E"/>
<path d="M28.5291 28.8263C28.5291 27.8695 29.3048 27.0938 30.2617 27.0938H27.8473C26.8904 27.0938 26.1147 27.8695 26.1147 28.8263C26.1147 29.7832 26.8904 30.5589 27.8473 30.5589L28.1233 30.6812L29.3201 30.5589H30.2617C29.3047 30.5589 28.5291 29.7832 28.5291 28.8263Z" fill="#FFB09E"/>
<path d="M10.2379 28.1058C9.90451 28.1058 9.63428 27.8355 9.63428 27.5022V25.963C9.63428 25.6296 9.90451 25.3594 10.2379 25.3594C10.5712 25.3594 10.8415 25.6296 10.8415 25.963V27.5022C10.8415 27.8355 10.5712 28.1058 10.2379 28.1058Z" fill="#F2FBFF"/>
<path d="M23.9071 23.6289V25.1025C23.9071 27.4405 22.0045 29.343 19.6666 29.343C19.3334 29.343 19.063 29.0726 19.063 28.7394C19.063 28.4062 19.3334 28.1358 19.6666 28.1358C21.3389 28.1358 22.6999 26.7748 22.6999 25.1025V23.6289H23.9071Z" fill="#FFB09E"/>
</g>
<defs>
<clipPath id="clip0_151_2207">
<rect width="40" height="40" fill="white" transform="translate(0.5)"/>
</clipPath>
</defs>
</svg>
