<svg width="41" height="34" viewBox="0 0 41 34" fill="none" xmlns="http://www.w3.org/2000/svg">
<path fill-rule="evenodd" clip-rule="evenodd" d="M36.0481 22.7059H27.7997C27.5888 22.7059 27.4248 22.5419 27.4248 22.331C27.4248 22.1201 27.5888 21.9326 27.7997 21.9326L28.1981 21.9795V17.4804H27.7997C27.5888 17.4804 27.4248 17.3163 27.4248 17.082C27.4248 16.8711 27.5888 16.7071 27.7997 16.7071H32.5332C32.955 16.7071 33.119 17.0352 33.2362 17.1992C33.2596 17.246 33.2596 17.2695 33.283 17.3163L36.3762 22.1201C36.4465 22.2373 36.4465 22.3779 36.3762 22.5185C36.3293 22.6356 36.1887 22.7059 36.0481 22.7059Z" fill="#FEECE8"/>
<path fill-rule="evenodd" clip-rule="evenodd" d="M39.2114 29.6186H36.6104C36.3995 29.6186 36.2355 29.4546 36.2355 29.2437C36.2355 29.0328 36.3995 28.8454 36.6104 28.8454L36.0714 28.6813C35.7434 27.0176 35.7434 27.8612 33.9859 27.8612C32.2284 27.8612 31.1271 27.2753 30.7756 28.9157L30.1663 28.8454C30.799 28.9157 31.0802 28.9157 31.0802 29.1265C31.0802 29.3374 30.3772 29.6186 30.1663 29.6186H27.7996H19.7621C19.5512 29.6186 19.3872 29.4546 19.3872 29.2437C19.3872 29.0328 19.5512 28.8454 19.7621 28.8454L19.4106 28.7516C19.0826 27.0879 18.2155 27.205 16.4815 27.205C14.724 27.205 13.9507 27.3222 13.5993 28.986L13.3181 28.8454C13.529 28.8454 13.7164 29.0328 13.7164 29.2437C13.7164 29.4546 13.529 29.6186 13.3181 29.6186H10.7404C9.94372 29.6186 9.2876 29.0094 9.2876 28.2361V16.4259C9.2876 15.6526 9.94372 15.0199 10.7404 15.0199H26.7451C27.5418 15.0199 28.198 15.6526 28.198 16.4259V21.9326L36.212 21.9795C36.3058 22.0264 36.5167 22.0967 36.7744 22.2138C40.43 23.7838 40.8283 24.1588 40.8283 24.5806V28.0721C40.8283 28.9391 40.1019 29.6186 39.2114 29.6186Z" fill="#FA5D3F"/>
<path fill-rule="evenodd" clip-rule="evenodd" d="M40.8284 25.7054V26.4786H37.4072C37.1963 26.4786 37.0322 26.2912 37.0322 26.0803C37.0322 25.8694 37.1963 25.7054 37.4072 25.7054H40.8284Z" fill="#FED941"/>
<path fill-rule="evenodd" clip-rule="evenodd" d="M40.8284 25.7054V26.4786H37.4072C37.1963 26.4786 37.0322 26.2912 37.0322 26.0803C37.0322 25.8694 37.1963 25.7054 37.4072 25.7054H40.8284Z" fill="#FED941"/>
<path fill-rule="evenodd" clip-rule="evenodd" d="M33.4002 33.2039C31.3849 33.2039 29.7681 31.587 29.7681 29.5718C29.7681 27.58 31.3849 25.9397 33.4002 25.9397C35.392 25.9397 37.0323 27.58 37.0323 29.5718C37.0323 31.587 35.392 33.2039 33.4002 33.2039Z" fill="#4D4D4D"/>
<path fill-rule="evenodd" clip-rule="evenodd" d="M33.4003 31.3995C32.3927 31.3995 31.5725 30.5794 31.5725 29.5718C31.5725 28.5641 32.3927 27.7674 33.4003 27.7674C34.4079 27.7674 35.228 28.5641 35.228 29.5718C35.228 30.5794 34.4079 31.3995 33.4003 31.3995Z" fill="#FEFEFE"/>
<path fill-rule="evenodd" clip-rule="evenodd" d="M14.232 24.44H11.9824C11.3498 24.44 10.8577 23.9244 10.8577 23.3152V18.4411C10.8577 17.8319 11.3498 17.3163 11.9824 17.3163H14.232C14.8647 17.3163 15.3802 17.8319 15.3802 18.4411V23.3152C15.3802 23.9244 14.8647 24.44 14.232 24.44Z" fill="#00DDC1"/>
<path fill-rule="evenodd" clip-rule="evenodd" d="M19.8792 24.44H17.6062C16.997 24.44 16.4814 23.9244 16.4814 23.3152V18.4411C16.4814 17.8319 16.997 17.3163 17.6062 17.3163H19.8792C20.4885 17.3163 21.004 17.8319 21.004 18.4411V23.3152C21.004 23.9244 20.4885 24.44 19.8792 24.44Z" fill="#00DDC1"/>
<path fill-rule="evenodd" clip-rule="evenodd" d="M25.5032 24.44H23.2302C22.621 24.44 22.1055 23.9244 22.1055 23.3152V18.4411C22.1055 17.8319 22.621 17.3163 23.2302 17.3163H25.5032C26.1125 17.3163 26.628 17.8319 26.628 18.4411V23.3152C26.628 23.9244 26.1125 24.44 25.5032 24.44Z" fill="#00DDC1"/>
<path fill-rule="evenodd" clip-rule="evenodd" d="M30.9866 25.2601H29.6744C29.112 25.2601 28.6199 24.7915 28.6199 24.2056C28.6199 23.6432 29.112 23.1512 29.6744 23.1512H30.9866C31.5724 23.1512 32.0411 23.6432 32.0411 24.2056C32.0411 24.7915 31.5724 25.2601 30.9866 25.2601Z" fill="white"/>
<path fill-rule="evenodd" clip-rule="evenodd" d="M7.71766 17.0586H3.80437C3.59347 17.0586 3.40601 16.8711 3.40601 16.6602C3.40601 16.4493 3.59347 16.2619 3.80437 16.2619H7.71766C7.92856 16.2619 8.09259 16.4493 8.09259 16.6602C8.09259 16.8711 7.92856 17.0586 7.71766 17.0586Z" fill="#CCCCCC"/>
<path fill-rule="evenodd" clip-rule="evenodd" d="M7.71765 20.8313H1.22673C0.9924 20.8313 0.828369 20.6673 0.828369 20.4329C0.828369 20.222 0.9924 20.058 1.22673 20.058H7.71765C7.92854 20.058 8.09258 20.222 8.09258 20.4329C8.09258 20.6673 7.92854 20.8313 7.71765 20.8313Z" fill="#CCCCCC"/>
<path fill-rule="evenodd" clip-rule="evenodd" d="M7.71766 24.604H3.80437C3.59347 24.604 3.40601 24.44 3.40601 24.2291C3.40601 23.9947 3.59347 23.8307 3.80437 23.8307H7.71766C7.92856 23.8307 8.09259 23.9947 8.09259 24.2291C8.09259 24.44 7.92856 24.604 7.71766 24.604Z" fill="#CCCCCC"/>
<path fill-rule="evenodd" clip-rule="evenodd" d="M7.71765 28.3767H1.22673C0.9924 28.3767 0.828369 28.2126 0.828369 28.0018C0.828369 27.7909 0.9924 27.6034 1.22673 27.6034H7.71765C7.92854 27.6034 8.09258 27.7909 8.09258 28.0018C8.09258 28.2126 7.92854 28.3767 7.71765 28.3767Z" fill="#CCCCCC"/>
<path fill-rule="evenodd" clip-rule="evenodd" d="M16.5518 33.2039C14.5365 33.2039 12.9197 31.587 12.9197 29.5718C12.9197 27.58 14.5365 25.9397 16.5518 25.9397C18.5436 25.9397 20.1839 27.58 20.1839 29.5718C20.1839 31.587 18.5436 33.2039 16.5518 33.2039Z" fill="#4D4D4D"/>
<path fill-rule="evenodd" clip-rule="evenodd" d="M16.5519 31.3995C15.5443 31.3995 14.7241 30.5794 14.7241 29.5718C14.7241 28.5641 15.5443 27.7674 16.5519 27.7674C17.5361 27.7674 18.3562 28.5641 18.3562 29.5718C18.3562 30.5794 17.5361 31.3995 16.5519 31.3995Z" fill="#FEFEFE"/>
<path fill-rule="evenodd" clip-rule="evenodd" d="M18.7311 14.4107C18.5905 14.4107 18.4499 14.3169 18.403 14.1763C18.2156 13.8248 17.9344 13.3328 17.6297 12.7469C15.966 9.65378 14.3491 6.5372 14.3491 5.17809C14.3491 2.74107 16.3175 0.772705 18.7311 0.772705C21.1681 0.772705 23.1365 2.74107 23.1365 5.17809C23.1365 6.5372 21.5196 9.65378 19.8559 12.7469C19.5512 13.3328 19.27 13.8248 19.0826 14.1763C19.0123 14.3169 18.8951 14.4107 18.7311 14.4107ZM18.7311 7.31049C17.5594 7.31049 16.6221 6.37317 16.6221 5.20153C16.6221 4.02988 17.5594 3.06913 18.7311 3.06913C19.9027 3.06913 20.8635 4.02988 20.8635 5.20153C20.8635 6.37317 19.9027 7.31049 18.7311 7.31049Z" fill="#FA5D3F"/>
</svg>
