<svg width="41" height="41" viewBox="0 0 41 41" fill="none" xmlns="http://www.w3.org/2000/svg">
<g clip-path="url(#clip0_151_2533)">
<path d="M35.7431 14.5371H4.39454C3.62063 14.5371 2.99329 15.1645 2.99329 15.9384V19.7024H37.1444V15.9384C37.1443 15.1645 36.517 14.5371 35.7431 14.5371Z" fill="#FFB125"/>
<path d="M24.3619 6.75427L21.523 35.4937C21.4517 36.2157 20.8087 36.7431 20.0867 36.6718L5.70233 35.2508C4.98038 35.1795 4.45296 34.5365 4.52428 33.8145L7.36319 5.07513C7.43452 4.35318 8.07756 3.82576 8.79952 3.89709L23.1839 5.31802C23.9058 5.38927 24.4332 6.03232 24.3619 6.75427Z" fill="#B6FA4C"/>
<path d="M23.184 5.31802L8.79966 3.89709C8.0777 3.82576 7.43466 4.35318 7.36333 5.07513L7.10864 7.65357C7.32442 7.54396 7.57247 7.49154 7.83114 7.51709L22.2155 8.93802C22.9375 9.00935 23.4649 9.6524 23.3936 10.3744L20.8093 36.5354C21.1957 36.3392 21.4774 35.9571 21.5231 35.4939L24.362 6.75443C24.4334 6.0324 23.9059 5.38935 23.184 5.31802Z" fill="#A8E83A"/>
<path d="M8.88813 9.1518L6.81712 30.118C6.78751 30.418 6.92876 30.7105 7.1847 30.8701C7.88993 31.3098 8.43602 31.9694 8.7361 32.7438C8.84399 33.0222 9.10165 33.2141 9.39868 33.2435L16.8555 33.9801C17.1525 34.0095 17.4428 33.8716 17.603 33.6197C18.0488 32.919 18.7134 32.3789 19.491 32.0857C19.7732 31.9793 19.969 31.7202 19.9986 31.4201L22.0696 10.4539C22.0992 10.1538 21.958 9.86133 21.702 9.7018C20.9968 9.26211 20.4507 8.6025 20.1506 7.82805C20.0427 7.54977 19.7851 7.35773 19.4881 7.32836L12.0313 6.5918C11.7342 6.56242 11.4439 6.70031 11.2838 6.95219C10.838 7.65289 10.1734 8.19297 9.39571 8.48617C9.1136 8.59258 8.91782 8.85172 8.88813 9.1518Z" fill="#77DD00"/>
<path d="M21.7021 9.7018C20.9969 9.26211 20.4508 8.6025 20.1507 7.82805C20.0428 7.54969 19.7852 7.35773 19.4882 7.32836L12.0314 6.5918C11.7343 6.56242 11.444 6.70031 11.2838 6.95219C10.838 7.65289 10.1734 8.19297 9.39573 8.48617C9.11355 8.59258 8.91776 8.85172 8.88815 9.1518L8.80933 9.94992L18.4713 10.8745C18.7683 10.9039 19.026 11.0959 19.1339 11.3742C19.4339 12.1486 19.98 12.8083 20.6853 13.248C20.9412 13.4075 21.0825 13.7 21.0528 14.0001L19.2566 32.184C19.3336 32.149 19.4116 32.1158 19.491 32.0858C19.7732 31.9794 19.969 31.7202 19.9986 31.4202L22.0696 10.454C22.0993 10.1538 21.958 9.86133 21.7021 9.7018Z" fill="#73CC00"/>
<path d="M36.5584 11.037L20.2952 34.9017C19.8867 35.5012 19.0695 35.656 18.4701 35.2475L6.52555 27.1076C5.9261 26.699 5.77125 25.8819 6.17977 25.2824L22.4431 1.41772C22.8516 0.818264 23.6688 0.66342 24.2682 1.07194L36.2127 9.21186C36.8122 9.62037 36.967 10.4375 36.5584 11.037Z" fill="#B6FA4C"/>
<path d="M36.2127 9.21188L24.2682 1.07196C23.6688 0.663441 22.8516 0.818206 22.4431 1.41774L21.052 3.45907C21.1727 3.4968 21.29 3.55243 21.4 3.62735L33.3445 11.7673C33.944 12.1758 34.0988 12.993 33.6903 13.5924L18.8182 35.4159C19.3557 35.584 19.9617 35.3913 20.2953 34.9018L36.5585 11.037C36.967 10.4375 36.8122 9.62039 36.2127 9.21188Z" fill="#A8E83A"/>
<path d="M21.8284 5.72566L9.96395 23.1356C9.79411 23.3848 9.77801 23.7092 9.92614 23.9718C10.3345 24.6957 10.4977 25.5363 10.39 26.3599C10.3513 26.6558 10.4854 26.9478 10.7321 27.1159L16.9241 31.3356C17.1707 31.5037 17.4916 31.5218 17.7529 31.3775C18.48 30.9761 19.3221 30.8205 20.1451 30.9357C20.4438 30.9775 20.7398 30.8439 20.9097 30.5947L32.7741 13.1849C32.944 12.9357 32.96 12.6113 32.8118 12.3486C32.4035 11.6248 32.2403 10.7842 32.348 9.96066C32.3867 9.66472 32.2525 9.37269 32.0059 9.20464L25.8139 4.98487C25.5672 4.81675 25.2464 4.7987 24.985 4.943C24.2579 5.34441 23.4159 5.49995 22.5929 5.38472C22.2943 5.34277 21.9982 5.47644 21.8284 5.72566Z" fill="#77DD00"/>
<path d="M32.8118 12.3486C32.4034 11.6248 32.2403 10.7841 32.3479 9.96063C32.3866 9.66469 32.2525 9.37266 32.0058 9.20454L25.8138 4.98485C25.5672 4.8168 25.2463 4.79868 24.985 4.94297C24.2579 5.34438 23.4158 5.49993 22.5928 5.38461C22.2941 5.34282 21.9981 5.47641 21.8283 5.72563L21.3338 6.45118L29.0724 11.6676C29.319 11.8357 29.4533 12.1277 29.4145 12.4236C29.3068 13.2471 29.47 14.0877 29.8783 14.8116C30.0265 15.0742 30.0104 15.3987 29.8405 15.6478L19.4446 30.9032C19.6776 30.893 19.9121 30.9031 20.1451 30.9358C20.4438 30.9777 20.7398 30.844 20.9097 30.5948L32.774 13.1848C32.9439 12.9356 32.96 12.6113 32.8118 12.3486Z" fill="#73CC00"/>
<path d="M23.186 20.7953C25.5328 20.7953 27.4352 18.8929 27.4352 16.5461C27.4352 14.1993 25.5328 12.2969 23.186 12.2969C20.8392 12.2969 18.9368 14.1993 18.9368 16.5461C18.9368 18.8929 20.8392 20.7953 23.186 20.7953Z" fill="#B6FA4C"/>
<path d="M36.2287 40.8441H3.49335C2.37726 40.8441 1.47241 39.9393 1.47241 38.8231V18.8237C1.47241 17.7076 2.37718 16.8027 3.49335 16.8027H36.2287C37.3448 16.8027 38.2497 17.7075 38.2497 18.8237V38.8231C38.2497 39.9393 37.3449 40.8441 36.2287 40.8441Z" fill="#FFB125"/>
<path d="M36.2286 16.8027H32.552C33.6681 16.8027 34.5729 17.7076 34.5729 18.8237V38.8231C34.5729 39.9392 33.6681 40.8441 32.552 40.8441H36.2286C37.3447 40.8441 38.2495 39.9393 38.2495 38.8231V18.8237C38.2495 17.7076 37.3447 16.8027 36.2286 16.8027Z" fill="#FF901D"/>
<path d="M39.4523 24.9609H32.0845C29.951 24.9609 28.2214 26.6905 28.2214 28.824C28.2214 30.9575 29.951 32.687 32.0845 32.687H39.4523C39.8567 32.687 40.1845 32.3592 40.1845 31.9548V25.6931C40.1845 25.2888 39.8567 24.9609 39.4523 24.9609Z" fill="#FF6D3A"/>
<path d="M39.4524 24.9609H35.7628C36.1671 24.9609 36.495 25.2888 36.495 25.6931V30.9674C36.495 31.3987 36.1453 31.7483 35.7141 31.7483H32.0845C30.11 31.7483 28.4825 30.2666 28.2508 28.3545C28.2321 28.5085 28.2214 28.6649 28.2214 28.8239C28.2214 30.9574 29.951 32.687 32.0845 32.687H35.7627H39.4523C39.8567 32.687 40.1845 32.3591 40.1845 31.9548V31.0161V25.6931C40.1846 25.2888 39.8567 24.9609 39.4524 24.9609Z" fill="#ED5729"/>
<path d="M36.2287 16.8027H3.49335C2.37726 16.8027 1.47241 17.7076 1.47241 18.8237V21.0384H38.2497V18.8237C38.2497 17.7076 37.3449 16.8027 36.2287 16.8027Z" fill="#FF6D3A"/>
<path d="M37.9042 17.6938C37.8315 17.5863 37.7488 17.4862 37.6574 17.3948C37.6563 17.3937 37.6552 17.3927 37.6541 17.3916C37.5636 17.3015 37.4646 17.2198 37.3583 17.148C37.3314 17.1298 37.304 17.1123 37.2762 17.0954C37.2349 17.0703 37.1923 17.0471 37.1491 17.0249C37.1211 17.0105 37.0928 16.9969 37.064 16.9838C36.8093 16.8678 36.5265 16.8027 36.2283 16.8027H32.552C33.668 16.8028 34.5727 17.7076 34.5727 18.8237V21.0383H38.2493V18.8237C38.2493 18.4748 38.1609 18.1467 38.0054 17.8604C37.9743 17.8032 37.9405 17.7476 37.9042 17.6938Z" fill="#ED5729"/>
<path d="M3.49335 40.843H36.2287C37.3448 40.843 38.2497 39.9382 38.2497 38.8221V36.6074H1.47241V38.8221C1.47241 39.9382 2.37718 40.843 3.49335 40.843Z" fill="#FF6D3A"/>
<path d="M34.5731 36.6074V38.8221C34.5731 38.8233 34.5731 38.8245 34.5731 38.8255C34.5728 39.0122 34.4166 39.1612 34.2299 39.1612H3.49335C2.37726 39.1612 1.47241 38.2563 1.47241 37.1402V38.822C1.47241 39.9383 2.37718 40.843 3.49335 40.843H32.5523H36.2288C36.2687 40.843 36.3083 40.8416 36.3476 40.8393C36.3598 40.8386 36.372 40.8374 36.3842 40.8365C36.4116 40.8344 36.4389 40.8319 36.466 40.8287C36.4794 40.8271 36.4929 40.8254 36.5063 40.8236C36.5333 40.8199 36.56 40.8155 36.5866 40.8109C36.5984 40.8088 36.6102 40.8069 36.6219 40.8045C36.6595 40.7971 36.6969 40.789 36.7337 40.7795H36.7338C36.75 40.7753 36.7658 40.7704 36.7818 40.7659C36.8617 40.7431 36.9398 40.7162 37.0155 40.6843C37.0457 40.6715 37.0755 40.658 37.105 40.6438C37.1344 40.6296 37.1635 40.6148 37.1921 40.5992L37.1922 40.5991C37.2494 40.568 37.3049 40.5343 37.3587 40.498L37.3587 40.498L37.3588 40.4979C37.4046 40.467 37.4487 40.4339 37.4916 40.3995C37.4936 40.3978 37.4957 40.3963 37.4976 40.3946C37.5412 40.3595 37.583 40.3224 37.6235 40.2838C37.6711 40.2384 37.7165 40.1907 37.7594 40.1409V40.1408C37.8266 40.0628 37.8881 39.9798 37.943 39.8921C37.9444 39.8898 37.946 39.8874 37.9475 39.8851C37.9676 39.8525 37.9872 39.8195 38.0055 39.7858C38.0055 39.7858 38.0056 39.7856 38.0057 39.7855V39.7854C38.0545 39.6955 38.0966 39.6012 38.1315 39.5037C38.1355 39.4926 38.1391 39.4812 38.1429 39.4701C38.1513 39.4452 38.1594 39.42 38.1669 39.3947C38.1706 39.3818 38.1743 39.3689 38.1779 39.3559C38.1848 39.3305 38.1912 39.3048 38.1972 39.2788C38.1999 39.267 38.2029 39.2552 38.2054 39.2434C38.2133 39.2061 38.2205 39.1685 38.2262 39.1305C38.2262 39.1303 38.2263 39.1302 38.2263 39.1299V39.1296C38.2331 39.0852 38.2379 39.0402 38.2417 38.9948C38.2426 38.9834 38.2435 38.9719 38.2444 38.9604C38.2475 38.9147 38.2496 38.8687 38.2496 38.8221V37.1403V36.6075L34.5731 36.6074Z" fill="#ED5729"/>
<path d="M32.2221 30.6166C33.2128 30.6166 34.0158 29.8136 34.0158 28.823C34.0158 27.8324 33.2128 27.0293 32.2221 27.0293C31.2315 27.0293 30.4285 27.8324 30.4285 28.823C30.4285 29.8136 31.2315 30.6166 32.2221 30.6166Z" fill="#F2F2F2"/>
</g>
<defs>
<clipPath id="clip0_151_2533">
<rect width="40" height="40" fill="white" transform="translate(0.828369 0.84375)"/>
</clipPath>
</defs>
</svg>
